<!-- Generated by IcoMoon.io -->
<svg version="1.1" xmlns="http://www.w3.org/2000/svg" width="54" height="32" viewBox="0 0 54 32">
<title>Logo</title>
<path fill="#8e8f99" d="M19.613 3.613l3.617 3.446-6.714-0.004v16.719h17.548v-6.392l3.613 3.442v-17.21h-18.065zM33.906 16.977l-10.255-9.77h10.255v9.77zM30.722 21.328h-11.429v-11.244h0.808v10.483h10.621v0.761zM21.572 26.87l-0.426-0.876h-0.352l0.617 1.159v0.675h0.319v-0.675l0.617-1.159h-0.35l-0.426 0.876zM23.142 25.994h0.076l0.693 1.835h-0.333l-0.148-0.43h-0.71l-0.148 0.43h-0.331l0.691-1.835h0.212zM22.806 27.149h0.537l-0.269-0.778-0.268 0.778zM25.023 26.845c-0.014-0.018-0.027-0.035-0.040-0.051-0.047-0.062-0.084-0.122-0.11-0.18s-0.039-0.119-0.039-0.181c0-0.096 0.020-0.178 0.059-0.247s0.095-0.122 0.168-0.159c0.072-0.038 0.157-0.057 0.253-0.057 0.093 0 0.173 0.019 0.241 0.057s0.12 0.086 0.156 0.147c0.037 0.061 0.055 0.129 0.055 0.202 0 0.058-0.010 0.111-0.031 0.159s-0.050 0.092-0.087 0.131c-0.037 0.039-0.080 0.077-0.129 0.112l-0.127 0.093 0.363 0.429c0.012-0.024 0.023-0.048 0.033-0.074 0.031-0.081 0.047-0.17 0.047-0.268h0.262c0 0.089-0.009 0.173-0.026 0.253s-0.044 0.154-0.082 0.222c-0.015 0.028-0.033 0.055-0.052 0.081l0.269 0.317h-0.352l-0.107-0.125c-0.058 0.044-0.12 0.078-0.188 0.103-0.089 0.032-0.184 0.048-0.285 0.048-0.122 0-0.227-0.022-0.316-0.067s-0.158-0.106-0.207-0.184c-0.048-0.078-0.072-0.168-0.072-0.268 0-0.075 0.016-0.14 0.047-0.197s0.074-0.11 0.127-0.159c0.050-0.045 0.106-0.090 0.17-0.135zM25.174 27.029l-0.038 0.028c-0.045 0.036-0.078 0.071-0.1 0.105s-0.035 0.063-0.042 0.091c-0.007 0.028-0.010 0.052-0.010 0.073 0 0.054 0.011 0.102 0.034 0.146s0.058 0.078 0.102 0.105c0.045 0.025 0.1 0.038 0.165 0.038 0.070 0 0.137-0.016 0.203-0.047 0.033-0.016 0.064-0.035 0.093-0.058l-0.408-0.48zM25.246 26.694l0.113-0.076c0.053-0.035 0.091-0.070 0.113-0.103s0.034-0.077 0.034-0.129c0-0.044-0.017-0.084-0.050-0.121s-0.081-0.055-0.142-0.055c-0.043 0-0.079 0.010-0.108 0.030s-0.052 0.045-0.067 0.078c-0.014 0.032-0.021 0.068-0.021 0.107 0 0.038 0.010 0.077 0.029 0.117s0.046 0.081 0.079 0.125c0.007 0.009 0.014 0.018 0.021 0.027zM28.456 27.232h-0.315c-0.009 0.080-0.029 0.147-0.058 0.203s-0.071 0.096-0.127 0.125c-0.055 0.029-0.128 0.043-0.218 0.043-0.074 0-0.137-0.015-0.19-0.044s-0.097-0.071-0.131-0.125c-0.034-0.054-0.059-0.118-0.076-0.193s-0.024-0.16-0.024-0.252v-0.155c0-0.097 0.009-0.184 0.026-0.26s0.046-0.141 0.082-0.193c0.036-0.052 0.081-0.092 0.135-0.118s0.117-0.040 0.189-0.040c0.088 0 0.16 0.015 0.214 0.045s0.096 0.072 0.123 0.129c0.029 0.056 0.047 0.124 0.055 0.203h0.315c-0.013-0.123-0.047-0.231-0.103-0.326s-0.134-0.169-0.234-0.223c-0.101-0.054-0.224-0.081-0.37-0.081-0.115 0-0.219 0.020-0.311 0.061s-0.17 0.099-0.236 0.175c-0.066 0.076-0.116 0.167-0.151 0.273s-0.052 0.226-0.052 0.358v0.152c0 0.132 0.017 0.251 0.050 0.358s0.084 0.198 0.149 0.273c0.065 0.075 0.142 0.133 0.233 0.174s0.193 0.061 0.306 0.061c0.148 0 0.273-0.027 0.377-0.081s0.184-0.127 0.241-0.221c0.057-0.094 0.091-0.201 0.101-0.321zM30.206 26.962v-0.101c0-0.139-0.018-0.262-0.055-0.372s-0.088-0.204-0.155-0.281c-0.067-0.078-0.147-0.137-0.241-0.178s-0.197-0.062-0.31-0.062c-0.113 0-0.215 0.021-0.309 0.062s-0.173 0.1-0.241 0.178c-0.067 0.077-0.119 0.171-0.156 0.281s-0.055 0.233-0.055 0.372v0.101c0 0.139 0.018 0.263 0.055 0.373s0.091 0.204 0.159 0.281c0.068 0.077 0.148 0.137 0.241 0.178s0.196 0.061 0.309 0.061c0.113 0 0.217-0.020 0.31-0.061s0.173-0.1 0.239-0.178c0.067-0.077 0.119-0.171 0.155-0.281s0.054-0.234 0.054-0.373zM29.89 26.859v0.103c0 0.102-0.010 0.193-0.030 0.272s-0.048 0.146-0.086 0.2c-0.038 0.054-0.084 0.095-0.139 0.122s-0.117 0.040-0.188 0.040c-0.070 0-0.132-0.013-0.186-0.040s-0.102-0.069-0.141-0.122c-0.039-0.055-0.068-0.121-0.088-0.2s-0.030-0.17-0.030-0.272v-0.103c0-0.102 0.010-0.193 0.030-0.271s0.049-0.145 0.087-0.198c0.039-0.054 0.085-0.094 0.14-0.121s0.117-0.042 0.186-0.042 0.132 0.014 0.188 0.042c0.055 0.027 0.102 0.067 0.14 0.121s0.068 0.119 0.087 0.198c0.020 0.078 0.030 0.168 0.030 0.271z"></path>
</svg>
