<!-- Generated by IcoMoon.io -->
<svg version="1.1" xmlns="http://www.w3.org/2000/svg" width="55" height="32" viewBox="0 0 55 32">
<title>Logo-4</title>
<path fill="#8e8f99" d="M14.289 23.666c0.131 0.146 0.201 0.329 0.197 0.516 0.007 0.122-0.017 0.244-0.070 0.357s-0.133 0.214-0.235 0.295c-0.254 0.173-0.569 0.257-0.887 0.238h-1.56v-3.271h1.528c0.302-0.018 0.601 0.059 0.847 0.217 0.099 0.074 0.177 0.168 0.228 0.274s0.075 0.222 0.068 0.337c0.009 0.18-0.054 0.358-0.178 0.5-0.119 0.13-0.282 0.22-0.465 0.256 0.207 0.034 0.394 0.133 0.527 0.28zM12.459 23.172h0.653c0.148 0.010 0.296-0.029 0.415-0.109 0.049-0.040 0.087-0.090 0.112-0.145s0.034-0.115 0.029-0.174c0.005-0.059-0.005-0.119-0.029-0.174s-0.061-0.105-0.109-0.146c-0.123-0.082-0.275-0.121-0.428-0.11h-0.643v0.858zM13.592 24.426c0.052-0.041 0.094-0.092 0.12-0.15s0.038-0.12 0.034-0.182c0.004-0.063-0.008-0.126-0.036-0.184s-0.069-0.11-0.122-0.151c-0.128-0.085-0.285-0.127-0.444-0.118h-0.685v0.9h0.694c0.156 0.008 0.311-0.032 0.438-0.113z"></path>
<path fill="#8e8f99" d="M17.413 25.072l-0.85-1.278h-0.319v1.278h-0.731v-3.271h1.384c0.349-0.022 0.694 0.078 0.964 0.278 0.194 0.177 0.31 0.411 0.329 0.66s-0.061 0.494-0.226 0.694c-0.171 0.176-0.404 0.294-0.66 0.332l0.905 1.307h-0.795zM16.243 23.348h0.598c0.415 0 0.623-0.165 0.623-0.495 0.004-0.067-0.007-0.135-0.033-0.198s-0.067-0.121-0.119-0.169c-0.131-0.098-0.3-0.146-0.47-0.133h-0.605l0.007 0.995z"></path>
<path fill="#8e8f99" d="M21.409 24.413h-1.457l-0.257 0.658h-0.767l1.338-3.234h0.829l1.333 3.234h-0.767l-0.252-0.658zM21.214 23.918l-0.532-1.38-0.532 1.38h1.065z"></path>
<path fill="#8e8f99" d="M26.412 25.072h-0.726l-1.627-2.224v2.224h-0.724v-3.271h0.724l1.627 2.237v-2.237h0.726v3.271z"></path>
<path fill="#8e8f99" d="M30.555 24.289c-0.15 0.247-0.379 0.448-0.657 0.577-0.316 0.144-0.667 0.215-1.020 0.206h-1.292v-3.271h1.292c0.353-0.008 0.703 0.061 1.020 0.201 0.278 0.126 0.507 0.325 0.657 0.57 0.149 0.266 0.227 0.56 0.227 0.858s-0.078 0.592-0.227 0.858zM29.724 24.21c0.207-0.217 0.321-0.494 0.321-0.781s-0.114-0.563-0.321-0.78c-0.25-0.197-0.577-0.297-0.909-0.278h-0.504v2.117h0.504c0.332 0.019 0.658-0.081 0.909-0.278z"></path>
<path fill="#8e8f99" d="M21.864 3.609c0 0 9.369 3.184 9.17 7.792v7.794c0 0-9.362-3.186-9.167-7.794l-0.004-7.792z"></path>
<path fill="#8e8f99" d="M39.381 17.37c1.769-1.096 3.816-1.775 5.953-1.975v-2.44c-2.462 0.854-4.55 2.403-5.953 4.415z"></path>
<path fill="#8e8f99" d="M38.318 18.105c1.448-2.625 3.959-4.651 7.016-5.661v-7.030c0 0-13.343 4.536-13.061 11.098v11.096c0 0 0.595-0.203 1.53-0.583 0-0.355 0-0.713 0.043-1.072 0.276-3.046 1.885-5.869 4.472-7.848z"></path>
<path fill="#8e8f99" d="M37.049 22.228c0.070-0.77 0.227-1.531 0.467-2.272-1.611 1.709-2.587 3.829-2.79 6.063-0.020 0.211-0.030 0.422-0.036 0.639 0.758-0.328 1.64-0.737 2.566-1.218-0.236-1.057-0.306-2.139-0.208-3.213z"></path>
<path fill="#8e8f99" d="M37.579 22.268c-0.089 0.972-0.033 1.951 0.165 2.91 3.645-1.964 7.742-4.998 7.584-8.665v-0.32c-2.604 0.262-5.041 1.287-6.936 2.918-0.444 1.010-0.718 2.074-0.813 3.157z"></path>
</svg>
