<!-- Generated by IcoMoon.io -->
<svg version="1.1" xmlns="http://www.w3.org/2000/svg" width="56" height="32" viewBox="0 0 56 32">
<title>Logo-5</title>
<path fill="#8e8f99" d="M29.033 14.884c-0.241-0.32-0.356-0.699-0.329-1.080v-1.566c0-0.48 0.109-0.845 0.327-1.095s0.592-0.374 1.123-0.373c0.499 0 0.853 0.106 1.062 0.319 0.228 0.271 0.339 0.603 0.314 0.937v0.368h-0.892v-0.373c0.003-0.122-0.005-0.244-0.026-0.365-0.013-0.083-0.058-0.159-0.127-0.217-0.092-0.062-0.207-0.092-0.323-0.084-0.122-0.008-0.243 0.024-0.34 0.089-0.078 0.064-0.13 0.148-0.148 0.239-0.026 0.128-0.037 0.257-0.035 0.387v1.901c-0.014 0.183 0.025 0.367 0.114 0.534 0.044 0.056 0.106 0.101 0.178 0.129s0.152 0.039 0.23 0.030c0.114 0.008 0.228-0.023 0.316-0.086 0.073-0.062 0.119-0.143 0.133-0.231 0.021-0.126 0.030-0.254 0.028-0.381v-0.386h0.892v0.352c0.025 0.349-0.083 0.695-0.308 0.985-0.205 0.233-0.554 0.349-1.067 0.349s-0.901-0.124-1.121-0.382z"></path>
<path fill="#8e8f99" d="M32.746 14.9c-0.225-0.244-0.338-0.599-0.338-1.069v-1.648c0-0.465 0.113-0.817 0.338-1.056s0.602-0.358 1.13-0.357c0.524 0 0.899 0.119 1.125 0.357 0.225 0.239 0.34 0.591 0.34 1.056v1.648c0 0.465-0.114 0.822-0.343 1.068s-0.602 0.368-1.121 0.368-0.903-0.124-1.13-0.366zM34.292 14.505c0.081-0.153 0.117-0.32 0.107-0.488v-2.017c0.010-0.164-0.026-0.328-0.105-0.478-0.045-0.058-0.108-0.103-0.182-0.131s-0.155-0.038-0.235-0.028c-0.080-0.010-0.162 0-0.236 0.028s-0.138 0.073-0.183 0.131c-0.081 0.149-0.118 0.313-0.107 0.478v2.027c-0.011 0.168 0.026 0.335 0.107 0.488 0.052 0.051 0.116 0.093 0.188 0.121s0.15 0.043 0.229 0.043 0.157-0.015 0.229-0.043c0.072-0.028 0.136-0.069 0.188-0.121v-0.010z"></path>
<path fill="#8e8f99" d="M36.414 10.818h0.96l0.722 3.040 0.739-3.040h0.934l0.094 4.388h-0.691l-0.074-3.050-0.713 3.050h-0.554l-0.739-3.061-0.068 3.061h-0.698l0.087-4.388z"></path>
<path fill="#8e8f99" d="M40.94 10.818h1.496c0.862 0 1.293 0.415 1.293 1.246 0 0.796-0.454 1.193-1.361 1.192h-0.51v1.95h-0.923l0.006-4.388zM42.218 12.694c0.091 0.010 0.184 0.003 0.272-0.021s0.168-0.064 0.236-0.117c0.106-0.148 0.153-0.322 0.133-0.495 0.005-0.134-0.010-0.268-0.044-0.398-0.013-0.044-0.036-0.085-0.068-0.12s-0.071-0.066-0.117-0.088c-0.128-0.053-0.27-0.077-0.412-0.070h-0.358v1.311h0.358z"></path>
<path fill="#8e8f99" d="M45.060 10.818h0.992l1.017 4.388h-0.861l-0.201-1.012h-0.885l-0.207 1.012h-0.873l1.017-4.388zM45.907 13.686l-0.345-1.842-0.345 1.842h0.691z"></path>
<path fill="#8e8f99" d="M47.891 10.818h0.646l1.237 2.503v-2.503h0.766v4.388h-0.615l-1.245-2.613v2.613h-0.792l0.002-4.388z"></path>
<path fill="#8e8f99" d="M52.335 13.533l-1.029-2.709h0.866l0.628 1.74 0.589-1.74h0.848l-1.016 2.709v1.673h-0.886v-1.673z"></path>
<path fill="#8e8f99" d="M30.459 17.125v0.229h-0.753v1.783h-0.316v-1.783h-0.757v-0.229h1.826z"></path>
<path fill="#8e8f99" d="M32.82 19.137h-0.244c-0.025 0.001-0.049-0.005-0.068-0.019-0.018-0.012-0.033-0.028-0.041-0.046l-0.218-0.478h-1.045l-0.218 0.478c-0.006 0.020-0.018 0.038-0.033 0.054-0.019 0.013-0.044 0.020-0.068 0.019h-0.244l0.923-2.012h0.321l0.934 2.004zM31.291 18.39h0.872l-0.369-0.819c-0.027-0.062-0.050-0.125-0.068-0.19-0.013 0.038-0.024 0.075-0.035 0.107l-0.033 0.084-0.366 0.817z"></path>
<path fill="#8e8f99" d="M34.412 18.94c0.058 0.003 0.116 0.003 0.174 0 0.050-0.004 0.099-0.012 0.148-0.024 0.045-0.010 0.090-0.022 0.133-0.037 0.041-0.014 0.081-0.032 0.124-0.049v-0.453h-0.369c-0.009 0-0.018-0.001-0.027-0.003s-0.016-0.007-0.023-0.012c-0.006-0.005-0.011-0.010-0.014-0.017s-0.005-0.013-0.004-0.020v-0.155h0.716v0.771c-0.058 0.036-0.12 0.068-0.185 0.096-0.066 0.028-0.134 0.051-0.205 0.069-0.075 0.019-0.153 0.033-0.231 0.041-0.090 0.009-0.18 0.013-0.27 0.013-0.159 0.001-0.317-0.024-0.465-0.075-0.138-0.048-0.264-0.119-0.369-0.21-0.103-0.092-0.184-0.2-0.238-0.319-0.058-0.133-0.087-0.275-0.085-0.418-0.002-0.143 0.026-0.286 0.083-0.421 0.053-0.119 0.134-0.228 0.238-0.319 0.105-0.091 0.231-0.162 0.369-0.209 0.158-0.051 0.326-0.077 0.495-0.075 0.086-0 0.172 0.006 0.257 0.018 0.075 0.011 0.149 0.028 0.22 0.051 0.065 0.021 0.126 0.048 0.185 0.080 0.057 0.031 0.11 0.067 0.161 0.105l-0.089 0.124c-0.007 0.011-0.017 0.021-0.030 0.028s-0.027 0.010-0.042 0.011c-0.020-0.001-0.040-0.006-0.057-0.016-0.028-0.013-0.057-0.029-0.090-0.048-0.039-0.021-0.081-0.039-0.124-0.054-0.055-0.019-0.112-0.034-0.17-0.045-0.077-0.012-0.156-0.018-0.235-0.018-0.122-0.001-0.243 0.018-0.356 0.056-0.103 0.036-0.195 0.090-0.271 0.159-0.077 0.072-0.135 0.157-0.172 0.25-0.083 0.218-0.083 0.453 0 0.671 0.040 0.095 0.103 0.181 0.185 0.253 0.076 0.069 0.168 0.123 0.27 0.159 0.117 0.035 0.242 0.048 0.366 0.040z"></path>
<path fill="#8e8f99" d="M37.356 18.908h1.008v0.229h-1.317v-2.013h0.316l-0.007 1.783z"></path>
<path fill="#8e8f99" d="M39.413 19.137h-0.316v-2.013h0.316v2.013z"></path>
<path fill="#8e8f99" d="M40.587 17.134c0.019 0.009 0.035 0.022 0.048 0.037l1.35 1.517c-0.002-0.024-0.002-0.048 0-0.072 0-0.022 0-0.045 0-0.065v-1.434h0.275v2.021h-0.159c-0.023 0.002-0.047-0.002-0.068-0.011-0.019-0.010-0.036-0.023-0.050-0.038l-1.348-1.515c0 0.024 0 0.046 0 0.069s0 0.043 0 0.062v1.434h-0.264v-2.013h0.164c0.018 0 0.035 0.003 0.052 0.010z"></path>
<path fill="#8e8f99" d="M44.585 17.125v0.221h-1.119v0.664h0.907v0.214h-0.907v0.687h1.119v0.221h-1.444v-2.008h1.444z"></path>
<path fill="#8e8f99" d="M11.496 4.696l14.021 3.435v12.038l-14.021-3.434v-12.040zM10.596 3.67v13.651l15.818 3.877v-13.649l-15.818-3.878z"></path>
<path fill="#8e8f99" d="M19.074 27.534l-15.82-3.88v-13.649l15.82 3.878v13.651z"></path>
<path fill="#8e8f99" d="M10.859 4.542l13.838 3.392-5.885 5.080-13.84-3.394 5.887-5.078zM10.596 3.67l-7.342 6.335 15.82 3.878 7.34-6.335-15.818-3.878z"></path>
<path fill="#8e8f99" d="M19.964 26.767l6.45-5.567-6.45-1.582v7.149z"></path>
</svg>
