<!-- Generated by IcoMoon.io -->
<svg version="1.1" xmlns="http://www.w3.org/2000/svg" width="53" height="32" viewBox="0 0 53 32">
<title>Logo-1</title>
<path fill="#8e8f99" d="M25.455 3.014h-0.069c-0.107-0.006-0.213-0.009-0.32-0.012v0h-0.231c-0.202 0-0.407 0.005-0.612 0.015-0.015-0.001-0.031-0.001-0.046 0-1.851 0.105-3.665 0.568-5.341 1.363l-0.22 0.106v11.246l0.514-0.174c0.451-0.155 0.932-0.294 1.429-0.424 1.344-0.345 2.725-0.528 4.112-0.546v1.478c-0.184 0.001-0.362 0.006-0.541 0.016h-0.042c-1.068 0.059-2.127 0.221-3.164 0.486-1.313 0.329-2.579 0.822-3.769 1.469v-14.424c1.236-0.721 2.567-1.262 3.954-1.608 1.218-0.314 2.469-0.476 3.726-0.48h0.217c0.26 0.006 0.513 0.018 0.75 0.036 0.626 0.044 1.248 0.143 1.857 0.296v1.454c-0.592-0.138-1.193-0.229-1.799-0.271-0.012-0.001-0.025-0.002-0.037-0.003-0.125-0.011-0.251-0.021-0.368-0.021zM28.014 4.501c0.323 0.025 0.657 0.036 0.995 0.036 1.322-0.005 2.637-0.174 3.918-0.502 1.312-0.33 2.578-0.824 3.767-1.47v14.167c-1.237 0.72-2.568 1.262-3.955 1.608-1.218 0.313-2.469 0.474-3.726 0.479-0.952 0.008-1.902-0.104-2.827-0.333v-14.258c0.218 0.050 0.443 0.097 0.672 0.136 0.375 0.063 0.771 0.11 1.156 0.138zM35.224 4.611l-0.514 0.173c-0.473 0.159-0.95 0.301-1.429 0.428-1.395 0.359-2.83 0.543-4.27 0.548-0.335 0-0.644-0.009-0.942-0.028l-0.41-0.027v11.569l0.352 0.031c0.326 0.028 0.663 0.043 1.002 0.043 1.134-0.005 2.264-0.151 3.363-0.435 0.905-0.227 1.785-0.543 2.628-0.944l0.22-0.106v-11.25z"></path>
<path fill="#8e8f99" d="M18.152 22.965c-0.074-0.077-0.163-0.137-0.261-0.177s-0.204-0.058-0.31-0.055c-0.113-0.002-0.225 0.020-0.33 0.062-0.096 0.038-0.184 0.096-0.257 0.169s-0.129 0.162-0.166 0.258c-0.040 0.101-0.060 0.21-0.059 0.319v1.927c-0.005 0.136 0.021 0.271 0.076 0.395 0.045 0.099 0.111 0.187 0.193 0.258 0.077 0.065 0.167 0.112 0.265 0.137 0.094 0.026 0.191 0.040 0.288 0.040 0.107 0.001 0.214-0.022 0.311-0.067 0.096-0.042 0.184-0.103 0.257-0.178 0.072-0.075 0.129-0.162 0.168-0.258 0.041-0.097 0.062-0.202 0.062-0.307v-0.216h-0.504v0.172c0.002 0.059-0.009 0.117-0.030 0.172-0.016 0.041-0.041 0.078-0.073 0.108-0.031 0.025-0.067 0.044-0.105 0.056-0.034 0.011-0.070 0.017-0.105 0.018-0.045 0.005-0.090-0.002-0.132-0.020s-0.078-0.047-0.104-0.084c-0.047-0.077-0.071-0.167-0.067-0.258v-1.797c-0.003-0.1 0.018-0.198 0.062-0.288 0.026-0.041 0.063-0.073 0.107-0.094s0.092-0.028 0.14-0.023c0.043-0.002 0.087 0.008 0.126 0.026s0.073 0.047 0.099 0.082c0.056 0.074 0.086 0.165 0.084 0.258v0.167h0.499v-0.196c0.001-0.115-0.020-0.23-0.062-0.337-0.037-0.101-0.094-0.193-0.168-0.271z"></path>
<path fill="#8e8f99" d="M21.145 22.943c-0.161-0.136-0.363-0.211-0.573-0.212-0.103 0-0.204 0.019-0.301 0.054-0.098 0.035-0.188 0.089-0.266 0.158-0.083 0.075-0.15 0.167-0.195 0.27-0.051 0.118-0.076 0.245-0.073 0.373v1.848c-0.003 0.13 0.022 0.259 0.073 0.378 0.046 0.099 0.112 0.188 0.195 0.258 0.077 0.072 0.167 0.127 0.266 0.163 0.096 0.035 0.198 0.054 0.301 0.054s0.204-0.019 0.301-0.054c0.1-0.036 0.193-0.092 0.272-0.163s0.145-0.16 0.19-0.258c0.052-0.119 0.077-0.248 0.073-0.378v-1.848c0.003-0.128-0.023-0.256-0.073-0.373-0.045-0.102-0.109-0.194-0.19-0.27zM20.91 25.435c0.004 0.049-0.003 0.099-0.020 0.145s-0.045 0.088-0.080 0.122c-0.067 0.056-0.15 0.086-0.237 0.086s-0.171-0.031-0.237-0.086c-0.036-0.034-0.063-0.076-0.080-0.122s-0.024-0.096-0.020-0.145v-1.848c-0.004-0.049 0.003-0.099 0.020-0.145s0.045-0.088 0.080-0.122c0.067-0.056 0.15-0.086 0.237-0.086s0.171 0.031 0.237 0.086c0.035 0.034 0.063 0.076 0.080 0.122s0.024 0.096 0.020 0.145v1.848z"></path>
<path fill="#8e8f99" d="M25.075 26.26v-3.499h-0.484l-0.636 1.852h-0.009l-0.641-1.852h-0.479v3.499h0.5v-2.129h0.009l0.49 1.505h0.249l0.493-1.505h0.009v2.129h0.5z"></path>
<path fill="#8e8f99" d="M27.915 23.006c-0.077-0.086-0.174-0.152-0.283-0.191-0.117-0.038-0.239-0.056-0.362-0.054h-0.743v3.499h0.499v-1.367h0.257c0.156 0.007 0.31-0.026 0.45-0.096 0.113-0.063 0.208-0.155 0.274-0.267 0.058-0.093 0.096-0.197 0.114-0.305 0.020-0.132 0.029-0.265 0.027-0.398 0.005-0.168-0.012-0.336-0.049-0.5-0.033-0.121-0.096-0.232-0.184-0.322zM27.658 24.073c-0.002 0.063-0.018 0.125-0.046 0.182-0.029 0.054-0.074 0.097-0.128 0.123-0.074 0.033-0.154 0.048-0.235 0.044h-0.227v-1.19h0.257c0.077-0.004 0.154 0.011 0.225 0.044 0.052 0.030 0.093 0.075 0.117 0.129 0.027 0.061 0.042 0.128 0.044 0.195 0 0.074 0 0.151 0 0.232s0.005 0.165 0 0.24h-0.005z"></path>
<path fill="#8e8f99" d="M30.277 22.761h-0.409l-0.771 3.499h0.499l0.146-0.752h0.68l0.146 0.752h0.499l-0.79-3.499zM29.817 25.032l0.245-1.268h0.009l0.244 1.268h-0.499z"></path>
<path fill="#8e8f99" d="M33.498 24.869h-0.009l-0.753-2.108h-0.479v3.499h0.499v-2.104h0.010l0.762 2.104h0.469v-3.499h-0.499v2.108z"></path>
<path fill="#8e8f99" d="M36.545 22.761l-0.401 1.391h-0.010l-0.401-1.391h-0.528l0.685 2.020v1.479h0.499v-1.479l0.685-2.020h-0.528z"></path>
<path fill="#8e8f99" d="M16.762 27.248h0.24v0.674h0.163v-0.674h0.239v-0.138h-0.642v0.138z"></path>
<path fill="#8e8f99" d="M18.782 27.11l-0.315 0.812h0.173l0.067-0.185h0.324l0.069 0.185h0.177l-0.323-0.812h-0.173zM18.756 27.601l0.111-0.301 0.11 0.301h-0.221z"></path>
<path fill="#8e8f99" d="M20.779 27.623h0.188v0.105c-0.055 0.044-0.123 0.068-0.193 0.068-0.033 0.002-0.065-0.004-0.095-0.018s-0.056-0.034-0.077-0.060c-0.043-0.062-0.064-0.136-0.060-0.212 0-0.181 0.078-0.271 0.234-0.271 0.041-0.004 0.082 0.007 0.116 0.030s0.058 0.059 0.068 0.099l0.161-0.031c-0.035-0.159-0.149-0.239-0.344-0.239-0.104-0.003-0.206 0.035-0.284 0.105-0.041 0.040-0.073 0.089-0.093 0.143s-0.028 0.112-0.024 0.169c-0.005 0.111 0.032 0.22 0.104 0.305 0.040 0.041 0.088 0.073 0.141 0.093s0.11 0.029 0.167 0.025c0.127 0.004 0.251-0.043 0.344-0.129v-0.32h-0.352v0.137z"></path>
<path fill="#8e8f99" d="M22.818 27.11h-0.164v0.812h0.569v-0.138h-0.405v-0.674z"></path>
<path fill="#8e8f99" d="M24.542 27.11h-0.164v0.812h0.164v-0.812z"></path>
<path fill="#8e8f99" d="M26.228 27.652l-0.333-0.543h-0.159v0.812h0.153v-0.531l0.326 0.531h0.163v-0.812h-0.15v0.543z"></path>
<path fill="#8e8f99" d="M27.752 27.564h0.405v-0.138h-0.405v-0.178h0.436v-0.138h-0.6v0.812h0.617v-0.138h-0.452v-0.22z"></path>
<path fill="#8e8f99" d="M31.447 27.43h-0.32v-0.32h-0.163v0.812h0.163v-0.355h0.32v0.355h0.163v-0.812h-0.163v0.32z"></path>
<path fill="#8e8f99" d="M32.98 27.564h0.406v-0.138h-0.406v-0.178h0.437v-0.138h-0.6v0.812h0.615v-0.138h-0.452v-0.22z"></path>
<path fill="#8e8f99" d="M35.059 27.564c0.141-0.022 0.213-0.097 0.213-0.226 0.004-0.035-0.001-0.070-0.015-0.101s-0.036-0.059-0.065-0.079c-0.074-0.037-0.156-0.053-0.238-0.048h-0.344v0.812h0.163v-0.34h0.032c0.035-0.002 0.070 0.004 0.102 0.018 0.024 0.015 0.044 0.035 0.058 0.059l0.177 0.258h0.195l-0.099-0.159c-0.044-0.078-0.105-0.145-0.18-0.195zM34.895 27.452h-0.121v-0.204h0.128c0.056-0.005 0.112 0.002 0.166 0.019 0.012 0.011 0.021 0.024 0.027 0.038s0.009 0.030 0.008 0.046c-0.001 0.016-0.005 0.031-0.013 0.045s-0.018 0.026-0.031 0.035c-0.054 0.016-0.11 0.023-0.166 0.019z"></path>
<path fill="#8e8f99" d="M36.627 27.564h0.405v-0.138h-0.405v-0.178h0.437v-0.138h-0.601v0.812h0.617v-0.138h-0.452v-0.22z"></path>
</svg>
