<!-- Generated by IcoMoon.io -->
<svg version="1.1" xmlns="http://www.w3.org/2000/svg" width="57" height="32" viewBox="0 0 57 32">
<title>Logo-3</title>
<path fill="#8e8f99" d="M13.285 11.872h-0.002c-1.316 0-2.383 0.962-2.383 2.149v0.001c0 1.187 1.067 2.149 2.383 2.149h0.002c1.316 0 2.383-0.962 2.383-2.149v-0.001c0-1.187-1.067-2.149-2.383-2.149z"></path>
<path fill="#8e8f99" d="M30.875 11.185c-0.004-1.648-0.731-3.228-2.024-4.394s-3.045-1.822-4.873-1.826v0c-1.829 0.003-3.582 0.659-4.875 1.825s-2.021 2.746-2.025 4.395v9.089c0 0 13.795-1.385 13.797-9.088v-0.001z"></path>
<path fill="#8e8f99" d="M6.069 23.258c0.003 1.147 0.51 2.246 1.409 3.057s2.118 1.268 3.39 1.272c1.272-0.003 2.49-0.46 3.39-1.271s1.406-1.91 1.41-3.056v-6.324c0 0-9.599 0.965-9.599 6.323zM10.868 24.391c-0.249 0-0.492-0.066-0.698-0.191s-0.368-0.301-0.463-0.509-0.12-0.435-0.072-0.655c0.049-0.22 0.168-0.422 0.344-0.58s0.4-0.266 0.644-0.31c0.244-0.044 0.496-0.021 0.726 0.064s0.426 0.231 0.564 0.417c0.138 0.186 0.212 0.405 0.212 0.63 0.001 0.149-0.031 0.297-0.094 0.435s-0.155 0.263-0.272 0.369c-0.117 0.106-0.256 0.19-0.408 0.247s-0.317 0.087-0.482 0.087v-0.004z"></path>
<path fill="#8e8f99" d="M19.646 22.353v2.353h-0.485v-2.353h0.485zM20.584 23.358v0.378h-1.070v-0.378h1.070zM20.697 22.353v0.38h-1.183v-0.38h1.183zM22.911 23.475v0.112c0 0.179-0.024 0.339-0.073 0.482s-0.117 0.264-0.205 0.364c-0.088 0.099-0.194 0.175-0.317 0.228-0.122 0.053-0.257 0.079-0.406 0.079-0.148 0-0.283-0.026-0.406-0.079-0.122-0.053-0.227-0.129-0.317-0.228-0.089-0.1-0.159-0.221-0.209-0.364-0.049-0.142-0.073-0.303-0.073-0.482v-0.112c0-0.18 0.024-0.341 0.073-0.482 0.049-0.142 0.117-0.264 0.205-0.364 0.090-0.1 0.195-0.177 0.317-0.23 0.123-0.053 0.258-0.079 0.406-0.079 0.149 0 0.284 0.026 0.406 0.079 0.123 0.053 0.228 0.129 0.317 0.23 0.089 0.1 0.158 0.221 0.207 0.364 0.050 0.141 0.074 0.302 0.074 0.482zM22.422 23.586v-0.115c0-0.125-0.011-0.235-0.034-0.33s-0.056-0.175-0.1-0.239-0.098-0.113-0.162-0.145c-0.064-0.033-0.136-0.050-0.218-0.050s-0.155 0.017-0.218 0.050c-0.063 0.032-0.116 0.081-0.16 0.145-0.043 0.065-0.076 0.144-0.099 0.239s-0.034 0.205-0.034 0.33v0.115c0 0.124 0.011 0.234 0.034 0.33 0.023 0.095 0.056 0.175 0.1 0.241 0.044 0.065 0.098 0.114 0.162 0.147s0.136 0.050 0.218 0.050c0.082 0 0.155-0.017 0.218-0.050s0.117-0.082 0.16-0.147c0.043-0.066 0.076-0.146 0.099-0.241 0.023-0.096 0.034-0.206 0.034-0.33zM24.486 24.091c0-0.042-0.006-0.080-0.019-0.113-0.012-0.034-0.034-0.066-0.068-0.094-0.033-0.029-0.080-0.058-0.141-0.086s-0.138-0.057-0.234-0.087c-0.107-0.034-0.208-0.073-0.304-0.116-0.095-0.043-0.179-0.093-0.252-0.15-0.072-0.058-0.129-0.126-0.171-0.202-0.041-0.076-0.061-0.165-0.061-0.267 0-0.098 0.022-0.187 0.065-0.267 0.043-0.081 0.103-0.15 0.181-0.207 0.078-0.058 0.169-0.103 0.275-0.134 0.107-0.031 0.224-0.047 0.351-0.047 0.173 0 0.325 0.031 0.454 0.094s0.23 0.148 0.301 0.257c0.072 0.109 0.108 0.233 0.108 0.373h-0.482c0-0.069-0.015-0.129-0.044-0.181-0.028-0.053-0.071-0.094-0.129-0.124-0.057-0.030-0.129-0.045-0.217-0.045-0.084 0-0.154 0.013-0.21 0.039-0.056 0.025-0.098 0.059-0.126 0.102-0.028 0.042-0.042 0.089-0.042 0.142 0 0.040 0.010 0.076 0.029 0.108 0.020 0.032 0.051 0.062 0.091 0.090s0.089 0.054 0.147 0.079c0.058 0.025 0.126 0.049 0.202 0.073 0.128 0.039 0.241 0.082 0.338 0.131 0.098 0.049 0.18 0.103 0.246 0.163s0.115 0.129 0.149 0.205c0.033 0.077 0.050 0.163 0.050 0.26 0 0.102-0.020 0.194-0.060 0.275s-0.098 0.149-0.173 0.205c-0.075 0.056-0.165 0.099-0.27 0.128s-0.221 0.044-0.351 0.044c-0.116 0-0.231-0.015-0.344-0.045-0.113-0.031-0.216-0.078-0.309-0.141-0.092-0.063-0.165-0.142-0.22-0.239s-0.082-0.212-0.082-0.344h0.486c0 0.073 0.011 0.135 0.034 0.186s0.054 0.092 0.095 0.123c0.042 0.031 0.092 0.054 0.149 0.068 0.058 0.014 0.122 0.021 0.191 0.021 0.084 0 0.153-0.012 0.207-0.036 0.055-0.024 0.095-0.057 0.121-0.099 0.027-0.042 0.040-0.089 0.040-0.142zM26.353 22.353v2.353h-0.483v-2.353h0.483zM27.077 22.353v0.38h-1.92v-0.38h1.92zM28.932 24.328v0.378h-1.253v-0.378h1.253zM27.838 22.353v2.353h-0.485v-2.353h0.485zM28.769 23.312v0.369h-1.089v-0.369h1.089zM28.931 22.353v0.38h-1.251v-0.38h1.251zM29.215 22.353h0.878c0.18 0 0.335 0.027 0.464 0.081 0.13 0.054 0.231 0.134 0.301 0.239s0.105 0.235 0.105 0.39c0 0.126-0.022 0.234-0.065 0.325-0.042 0.089-0.102 0.164-0.179 0.225-0.076 0.059-0.166 0.107-0.27 0.142l-0.154 0.081h-0.763l-0.003-0.378h0.567c0.085 0 0.156-0.015 0.212-0.045s0.098-0.072 0.126-0.126c0.029-0.054 0.044-0.116 0.044-0.187 0-0.075-0.014-0.141-0.042-0.196s-0.071-0.097-0.128-0.126-0.129-0.044-0.215-0.044h-0.393v1.974h-0.485v-2.353zM30.531 24.707l-0.537-1.049 0.512-0.003 0.543 1.030v0.023h-0.519zM33.077 23.868h-0.6v-0.378h0.6c0.093 0 0.168-0.015 0.226-0.045 0.058-0.031 0.101-0.074 0.128-0.129s0.040-0.117 0.040-0.186c0-0.070-0.013-0.135-0.040-0.196s-0.070-0.109-0.128-0.145-0.134-0.055-0.226-0.055h-0.432v1.974h-0.485v-2.353h0.917c0.184 0 0.342 0.033 0.474 0.1 0.133 0.066 0.234 0.157 0.304 0.273s0.105 0.249 0.105 0.399c0 0.152-0.035 0.283-0.105 0.394s-0.171 0.197-0.304 0.257c-0.131 0.060-0.289 0.090-0.474 0.090zM35.873 24.328v0.378h-1.253v-0.378h1.253zM34.779 22.353v2.353h-0.485v-2.353h0.485zM35.71 23.312v0.369h-1.089v-0.369h1.089zM35.871 22.353v0.38h-1.251v-0.38h1.251zM37.241 22.353v2.353h-0.483v-2.353h0.483zM37.965 22.353v0.38h-1.92v-0.38h1.92zM39.82 24.328v0.378h-1.253v-0.378h1.253zM38.726 22.353v2.353h-0.485v-2.353h0.485zM39.657 23.312v0.369h-1.089v-0.369h1.089zM39.819 22.353v0.38h-1.251v-0.38h1.251zM40.103 22.353h0.878c0.18 0 0.335 0.027 0.464 0.081 0.13 0.054 0.231 0.134 0.301 0.239s0.105 0.235 0.105 0.39c0 0.126-0.022 0.234-0.065 0.325-0.042 0.089-0.102 0.164-0.179 0.225-0.077 0.059-0.166 0.107-0.27 0.142l-0.154 0.081h-0.763l-0.003-0.378h0.567c0.085 0 0.156-0.015 0.212-0.045s0.098-0.072 0.126-0.126c0.029-0.054 0.044-0.116 0.044-0.187 0-0.075-0.014-0.141-0.042-0.196s-0.071-0.097-0.128-0.126c-0.057-0.029-0.129-0.044-0.215-0.044h-0.393v1.974h-0.485v-2.353zM41.419 24.707l-0.537-1.049 0.512-0.003 0.543 1.030v0.023h-0.519zM43.449 24.091c0-0.042-0.007-0.080-0.019-0.113-0.012-0.034-0.034-0.066-0.068-0.094-0.033-0.029-0.080-0.058-0.141-0.086s-0.138-0.057-0.234-0.087c-0.107-0.034-0.208-0.073-0.304-0.116-0.095-0.043-0.179-0.093-0.252-0.15-0.072-0.058-0.129-0.126-0.171-0.202-0.041-0.076-0.061-0.165-0.061-0.267 0-0.098 0.022-0.187 0.065-0.267 0.043-0.081 0.103-0.15 0.181-0.207 0.078-0.058 0.169-0.103 0.275-0.134 0.107-0.031 0.224-0.047 0.351-0.047 0.173 0 0.325 0.031 0.454 0.094s0.23 0.148 0.301 0.257c0.072 0.109 0.108 0.233 0.108 0.373h-0.482c0-0.069-0.015-0.129-0.044-0.181-0.028-0.053-0.071-0.094-0.129-0.124-0.057-0.030-0.129-0.045-0.217-0.045-0.084 0-0.154 0.013-0.21 0.039-0.056 0.025-0.098 0.059-0.126 0.102-0.028 0.042-0.042 0.089-0.042 0.142 0 0.040 0.010 0.076 0.029 0.108 0.020 0.032 0.051 0.062 0.091 0.090s0.089 0.054 0.147 0.079c0.058 0.025 0.126 0.049 0.202 0.073 0.128 0.039 0.241 0.082 0.338 0.131 0.098 0.049 0.18 0.103 0.246 0.163s0.115 0.129 0.149 0.205c0.033 0.077 0.050 0.163 0.050 0.26 0 0.102-0.020 0.194-0.060 0.275s-0.098 0.149-0.173 0.205c-0.075 0.056-0.165 0.099-0.27 0.128s-0.221 0.044-0.351 0.044c-0.116 0-0.231-0.015-0.344-0.045-0.113-0.031-0.216-0.078-0.309-0.141-0.092-0.063-0.165-0.142-0.22-0.239s-0.082-0.212-0.082-0.344h0.486c0 0.073 0.011 0.135 0.034 0.186s0.054 0.092 0.095 0.123c0.042 0.031 0.092 0.054 0.149 0.068 0.058 0.014 0.122 0.021 0.191 0.021 0.084 0 0.153-0.012 0.207-0.036 0.055-0.024 0.095-0.057 0.121-0.099 0.027-0.042 0.040-0.089 0.040-0.142z"></path>
</svg>
