<!-- Generated by IcoMoon.io -->
<svg version="1.1" xmlns="http://www.w3.org/2000/svg" width="57" height="32" viewBox="0 0 57 32">
<title>Logo-2</title>
<path fill="#8e8f99" d="M20.309 27.158c0.009 0 0.018 0.002 0.026 0.005s0.015 0.008 0.021 0.013l0.122 0.115c-0.095 0.093-0.211 0.167-0.343 0.217-0.154 0.055-0.319 0.082-0.486 0.078-0.157 0.003-0.312-0.022-0.457-0.073-0.131-0.047-0.248-0.117-0.344-0.206-0.098-0.092-0.174-0.2-0.222-0.318-0.053-0.131-0.079-0.269-0.078-0.407-0.002-0.139 0.026-0.278 0.084-0.409 0.053-0.118 0.133-0.226 0.236-0.318 0.104-0.090 0.228-0.16 0.366-0.207 0.15-0.050 0.31-0.074 0.471-0.073 0.149-0.003 0.298 0.019 0.437 0.066 0.121 0.045 0.231 0.107 0.327 0.183l-0.102 0.122c-0.007 0.009-0.016 0.016-0.026 0.022-0.012 0.007-0.027 0.010-0.041 0.009-0.016-0.001-0.031-0.005-0.044-0.013l-0.055-0.033-0.076-0.042c-0.033-0.015-0.067-0.029-0.102-0.040-0.045-0.014-0.092-0.025-0.139-0.033-0.060-0.009-0.12-0.014-0.181-0.013-0.116-0.001-0.231 0.017-0.338 0.055-0.1 0.035-0.19 0.087-0.265 0.154-0.076 0.071-0.134 0.154-0.172 0.245-0.043 0.104-0.064 0.213-0.062 0.323-0.002 0.112 0.019 0.223 0.062 0.328 0.037 0.090 0.095 0.172 0.169 0.243 0.070 0.066 0.156 0.118 0.253 0.151 0.099 0.035 0.206 0.053 0.314 0.052 0.062 0.001 0.124-0.003 0.186-0.010 0.1-0.010 0.197-0.040 0.282-0.087 0.043-0.024 0.083-0.051 0.12-0.081 0.016-0.013 0.036-0.020 0.058-0.021z"></path>
<path fill="#8e8f99" d="M23.827 26.582c0.002 0.138-0.026 0.275-0.082 0.405-0.050 0.117-0.128 0.224-0.229 0.314s-0.224 0.16-0.36 0.206c-0.298 0.097-0.628 0.097-0.926 0-0.135-0.047-0.257-0.117-0.358-0.207-0.102-0.091-0.18-0.199-0.232-0.318-0.11-0.262-0.11-0.549 0-0.811 0.052-0.118 0.131-0.227 0.232-0.319 0.102-0.087 0.224-0.154 0.358-0.199 0.298-0.099 0.628-0.099 0.926 0 0.135 0.047 0.258 0.117 0.359 0.207 0.1 0.090 0.178 0.197 0.23 0.314 0.056 0.13 0.084 0.268 0.082 0.407zM23.507 26.582c0.002-0.11-0.017-0.22-0.058-0.325-0.034-0.090-0.090-0.173-0.163-0.243-0.071-0.067-0.159-0.119-0.257-0.154-0.217-0.071-0.456-0.071-0.673 0-0.098 0.034-0.186 0.087-0.257 0.154-0.074 0.070-0.13 0.153-0.164 0.243-0.078 0.212-0.078 0.439 0 0.651 0.034 0.090 0.090 0.173 0.164 0.243 0.072 0.066 0.159 0.118 0.257 0.152 0.217 0.069 0.456 0.069 0.673 0 0.098-0.034 0.186-0.086 0.257-0.152 0.073-0.071 0.128-0.154 0.163-0.243 0.041-0.105 0.060-0.215 0.058-0.325z"></path>
<path fill="#8e8f99" d="M26.227 26.923l0.032 0.073c0.012-0.026 0.023-0.049 0.035-0.073 0.012-0.024 0.025-0.048 0.040-0.072l0.778-1.209c0.015-0.021 0.029-0.034 0.044-0.038 0.021-0.005 0.042-0.008 0.064-0.006h0.23v1.966h-0.273v-1.446c0-0.018 0-0.039 0-0.061-0.002-0.023-0.002-0.045 0-0.068l-0.783 1.226c-0.010 0.018-0.026 0.034-0.046 0.045s-0.043 0.017-0.067 0.016h-0.044c-0.024 0-0.047-0.005-0.067-0.016s-0.036-0.026-0.046-0.045l-0.806-1.233c0 0.023 0 0.047 0 0.070s0 0.044 0 0.062v1.446h-0.263v-1.962h0.23c0.022-0.001 0.043 0.001 0.064 0.006 0.019 0.008 0.034 0.021 0.043 0.038l0.795 1.21c0.016 0.022 0.029 0.046 0.040 0.070z"></path>
<path fill="#8e8f99" d="M29.156 26.826v0.736h-0.305v-1.963h0.679c0.128-0.002 0.256 0.012 0.379 0.043 0.099 0.024 0.19 0.066 0.268 0.122 0.068 0.053 0.12 0.119 0.152 0.193 0.036 0.080 0.054 0.165 0.052 0.251 0.001 0.086-0.018 0.172-0.056 0.251-0.037 0.075-0.093 0.143-0.164 0.196-0.078 0.059-0.17 0.103-0.27 0.13-0.119 0.032-0.243 0.048-0.367 0.046l-0.369-0.005zM29.156 26.615h0.369c0.080 0.001 0.16-0.009 0.236-0.030 0.063-0.018 0.121-0.047 0.171-0.085 0.046-0.036 0.081-0.081 0.104-0.13 0.025-0.052 0.037-0.109 0.037-0.165 0.004-0.055-0.007-0.109-0.030-0.16s-0.060-0.097-0.107-0.134c-0.116-0.078-0.262-0.115-0.41-0.105h-0.369v0.809z"></path>
<path fill="#8e8f99" d="M33.249 27.565h-0.241c-0.024 0.001-0.048-0.006-0.067-0.018-0.017-0.012-0.031-0.028-0.040-0.046l-0.207-0.475h-1.040l-0.215 0.475c-0.008 0.017-0.021 0.033-0.038 0.044-0.019 0.013-0.044 0.020-0.069 0.020h-0.241l0.914-1.966h0.317l0.926 1.966zM31.742 26.835h0.859l-0.362-0.8c-0.028-0.060-0.051-0.122-0.069-0.185l-0.035 0.103c-0.011 0.031-0.023 0.060-0.033 0.083l-0.359 0.799z"></path>
<path fill="#8e8f99" d="M34.565 25.608c0.018 0.009 0.034 0.021 0.046 0.035l1.333 1.482c0-0.023 0-0.047 0-0.069s0-0.044 0-0.065v-1.392h0.273v1.966h-0.152c-0.022 0.001-0.043-0.003-0.062-0.012-0.019-0.009-0.035-0.022-0.049-0.036l-1.331-1.481c0.001 0.023 0.001 0.045 0 0.068 0 0.022 0 0.042 0 0.060v1.401h-0.273v-1.966h0.161c0.019-0 0.038 0.003 0.055 0.009z"></path>
<path fill="#8e8f99" d="M38.461 26.783v0.781h-0.305v-0.781l-0.842-1.184h0.273c0.023-0.001 0.047 0.005 0.066 0.017 0.017 0.013 0.031 0.028 0.041 0.044l0.527 0.764c0.021 0.033 0.040 0.062 0.055 0.091s0.027 0.056 0.038 0.083l0.040-0.085c0.015-0.031 0.032-0.061 0.052-0.090l0.519-0.769c0.011-0.015 0.024-0.029 0.040-0.042 0.018-0.014 0.042-0.020 0.066-0.020h0.276l-0.844 1.189z"></path>
<path fill="#8e8f99" d="M26.076 22.299c0.132 0.014 0.266 0.026 0.402 0.036 2.055-0.785 3.793-2.071 4.998-3.696s1.822-3.517 1.775-5.44l-2.265-1.935c0.46 2.047 0.245 4.164-0.622 6.113s-2.352 3.653-4.288 4.922z"></path>
<path fill="#8e8f99" d="M25.268 22.209l0.061 0.010c2.069-1.264 3.646-3.030 4.528-5.069s1.028-4.256 0.418-6.366l-3.226-2.756c1.305 2.265 1.83 4.8 1.514 7.311s-1.458 4.892-3.296 6.87z"></path>
<path fill="#8e8f99" d="M36.207 15.472c-0.548 2.113-1.879 4.018-3.795 5.434-0.56 0.416-1.163 0.786-1.803 1.106 1.56-0.392 2.995-1.085 4.192-2.025s2.126-2.103 2.715-3.398l-1.308-1.116z"></path>
<path fill="#8e8f99" d="M35.694 15.161l-1.863-1.591c-0.036 1.814-0.639 3.587-1.748 5.135s-2.683 2.813-4.558 3.665h0.009c0.418-0 0.835-0.021 1.25-0.064 1.753-0.611 3.301-1.583 4.506-2.83s2.031-2.729 2.403-4.315z"></path>
<path fill="#8e8f99" d="M25.537 6.867l-2.222-1.901c-1.986 0.656-3.695 1.809-4.902 3.308s-1.856 3.275-1.862 5.094v0c0.007 2.010 0.799 3.961 2.251 5.544s3.479 2.706 5.762 3.194c2.038-2.121 3.231-4.743 3.406-7.483s-0.677-5.457-2.433-7.755z"></path>
<path fill="#8e8f99" d="M40.828 14.868c-0.008-2.385-1.121-4.671-3.095-6.358s-4.649-2.637-7.441-2.644c-1.29-0.001-2.569 0.202-3.772 0.6l13.605 11.624c0.466-1.027 0.704-2.12 0.704-3.222z"></path>
</svg>
