
<svg xmlns="http://www.w3.org/2000/svg" aria-hidden="true" style="position:absolute;width:0;height:0;overflow:hidden">
  <defs>
    <symbol id="antenna" viewBox="0 0 32 32">
      <path fill="#2e2f42" d="m30.773 22.098-8.443-8.505.937-4.615c.242.094.499.144.758.146h.006a2.159 2.159 0 1 0-2.008-1.435l-4.96.605L8.972.161a.534.534 0 0 0-.377-.16.532.532 0 0 0-.373.155L6.709 1.66a.534.534 0 0 0 0 .754l.814.826a14.943 14.943 0 0 0 2.519 17.663.513.513 0 0 0 .146.098c-.034.18-.051.364-.052.547v6.187h-6.4a2.67 2.67 0 0 0-2.667 2.667v1.067c0 .295.239.533.533.533h24.533a.533.533 0 0 0 .533-.533v-1.067a2.67 2.67 0 0 0-2.667-2.667h-6.4v-2.742a15.09 15.09 0 0 0 3.049.32 14.854 14.854 0 0 0 7.04-1.783l.818.823a.534.534 0 0 0 .377.16.532.532 0 0 0 .373-.155l1.513-1.504a.534.534 0 0 0 0-.754zM23.28 6.233a1.067 1.067 0 1 1 .753 1.822h-.003a1.067 1.067 0 0 1-.747-1.823h-.002zm-1.256 3.505-.598 2.946-1.175-1.182 1.774-1.763zm-.605-.902-1.92 1.909-1.485-1.493 3.405-.415zM24.004 28.8a1.6 1.6 0 0 1 1.6 1.6v.533H2.137V30.4a1.6 1.6 0 0 1 1.6-1.6h20.267zm-7.467-2.133v1.067h-5.333v-1.067h5.333zM11.204 25.6v-4.053c0-1.294 1.196-2.347 2.667-2.347s2.667 1.053 2.667 2.347V25.6h-5.333zm6.4-1.696v-2.357c0-1.882-1.675-3.413-3.733-3.413a3.8 3.8 0 0 0-3.281 1.786A13.87 13.87 0 0 1 8.311 4.033l18.602 18.708a13.818 13.818 0 0 1-9.309 1.163zm11.289-.684L7.836 2.039l.755-.752 7.935 7.98c.004 0 .006.007.01.01l13.115 13.191-.757.752z" style="fill:var(--color1, #2e2f42)"/>
      <path fill="#4d5ae5" d="M13.876 20.267h-.005a1.6 1.6 0 1 0-.004 3.2h.005a1.6 1.6 0 1 0 .004-3.2zm.373 1.978a.534.534 0 0 1-.752-.756.534.534 0 0 1 .373-.155.534.534 0 0 1 .374.911h.005z" style="fill:var(--color2, #4d5ae5)"/>
    </symbol>
    <symbol id="clock" viewBox="0 0 32 32">
      <path fill="#2e2f42" d="M31.297 15.301C31.295 6.849 24.442-.002 15.989 0S.686 6.855.688 15.308a15.304 15.304 0 0 0 10.649 14.576.662.662 0 0 0 .529-.065.637.637 0 0 0 .283-.356l3.865-12.25a1.912 1.912 0 1 0-.84-3.635l-5.106-5.107a.637.637 0 0 0-.902.902l5.103 5.109a1.876 1.876 0 0 0 .536 2.309l-3.683 11.673C3.844 25.783.118 17.71 2.799 10.432S13.553-.572 20.831 2.109c7.278 2.681 11.004 10.754 8.323 18.032a14.042 14.042 0 0 1-7.462 7.973l-.398-1.874a.637.637 0 0 0-1.049-.344l-3.837 3.426a.637.637 0 0 0 .231 1.084l4.899 1.564a.638.638 0 0 0 .819-.74l-.391-1.839a15.255 15.255 0 0 0 9.329-14.089zm-15.305-.637a.638.638 0 1 1 0 1.277.638.638 0 0 1 0-1.277zm2.101 14.864 2.184-1.948.603 2.84-2.787-.892z" style="fill:var(--color1, #2e2f42)"/>
      <path fill="#4d5ae5" d="M15.354 3.185V4.46a.638.638 0 1 0 1.276 0V3.185a.638.638 0 0 0-1.276 0zM3.876 14.664a.638.638 0 0 0 0 1.276h1.275a.638.638 0 1 0 0-1.276H3.876zm24.232 1.275a.638.638 0 1 0 0-1.276h-1.275a.638.638 0 0 0 0 1.276h1.275z" style="fill:var(--color2, #4d5ae5)"/>
    </symbol>
    <symbol id="diagram" viewBox="0 0 32 32">
      <path fill="#4d5ae5" d="M14.926 14.965h1.066v4.798h-1.066v-4.797zm4.264 2.132h1.066v2.665H19.19v-2.665zm-8.529 1.599h1.066v1.066h-1.066v-1.066zm-3.198-.533h1.066v1.599H7.463v-1.599z" style="fill:var(--color2, #4d5ae5)"/>
      <path fill="#2e2f42" d="M1.599 28.291h25.587a1.6 1.6 0 0 0 1.599-1.599V24.56a1.6 1.6 0 0 0-1.599-1.599h-.533V9.668L29.681 6.8a1.608 1.608 0 1 0-.746-.763L26.654 8.2V6.97a1.6 1.6 0 0 0-1.599-1.599H3.733A1.6 1.6 0 0 0 2.134 6.97v15.992h-.533a1.6 1.6 0 0 0-1.599 1.599v2.132a1.6 1.6 0 0 0 1.599 1.599zM30.384 4.837a.533.533 0 1 1 0 1.067.533.533 0 0 1 0-1.067zM3.198 6.969c0-.294.239-.533.533-.533h21.322c.294 0 .533.239.533.533v2.239l-1.066 1.013V8.035a.533.533 0 0 0-.533-.533H4.797a.533.533 0 0 0-.533.533v13.326c0 .294.239.533.533.533h19.19a.533.533 0 0 0 .533-.533v-9.674l1.066-1.01v12.284H3.198V6.969zm4.798 6.93a1.598 1.598 0 1 0 1.107 2.749l1.853.93a.532.532 0 0 0 .636-.123l3.939-4.431 3.872 2.901a.533.533 0 0 0 .686-.039l3.365-3.188v8.131H5.33V8.569h18.124v2.66l-3.771 3.572-3.904-2.927a.533.533 0 0 0-.718.072l-3.993 4.493-1.493-.746c.011-.064.018-.129.02-.193a1.6 1.6 0 0 0-1.599-1.599zm.533 1.599a.533.533 0 1 1-1.067 0 .533.533 0 0 1 1.067 0zm3.198 8.529h5.331v.533a.533.533 0 0 1-.533.533h-4.264a.533.533 0 0 1-.533-.533v-.533zm-10.661.533c0-.294.239-.533.533-.533h9.062v.533a1.6 1.6 0 0 0 1.599 1.599h4.264a1.6 1.6 0 0 0 1.599-1.599v-.533h9.062c.294 0 .533.239.533.533v2.132a.533.533 0 0 1-.533.533H1.598a.533.533 0 0 1-.533-.533V24.56z" style="fill:var(--color1, #2e2f42)"/>
    </symbol>
    <symbol id="astronaut" viewBox="0 0 32 32">
      <path fill="#4d5ae5" d="M31.974 4.524a.534.534 0 0 0-.43-.363l-1.91-.278-.855-1.731c-.179-.365-.777-.365-.956 0l-.855 1.731-1.91.278a.535.535 0 0 0-.296.91l1.383 1.348-.326 1.903c-.034.2.048.402.212.522a.53.53 0 0 0 .562.04l1.709-.899 1.709.899a.536.536 0 0 0 .775-.563l-.326-1.903 1.383-1.348a.536.536 0 0 0 .135-.547zm-2.463 1.327a.534.534 0 0 0-.153.472l.191 1.114-1-.526a.533.533 0 0 0-.498 0l-1.001.526.191-1.114a.534.534 0 0 0-.153-.472l-.81-.789 1.119-.163a.532.532 0 0 0 .402-.292l.5-1.013.5 1.013a.535.535 0 0 0 .402.292l1.119.163-.809.789zm-3.377 14.671h-1.067v1.067h1.067v-1.067zm0 2.134h-1.067v1.067h1.067v-1.067zm1.066-1.067h-1.067v1.067H27.2v-1.067zm-2.133 0H24v1.067h1.067v-1.067zm-2.667 4.8h-1.067v1.067H22.4v-1.067zm0 2.133h-1.067v1.067H22.4v-1.067zm1.067-1.066H22.4v1.067h1.067v-1.067zm-2.134 0h-1.067v1.067h1.067v-1.067zM16 24.256h-1.067v1.067H16v-1.067zm0 2.133h-1.067v1.067H16v-1.067zm1.067-1.067H16v1.067h1.067v-1.067zm-2.134 0h-1.067v1.067h1.067v-1.067zm-9.066-19.2H4.8v1.067h1.067V6.122zm0 2.133H4.8v1.067h1.067V8.255z" style="fill:var(--color2, #4d5ae5)"/>
      <path fill="#4d5ae5" d="M6.933 7.189H5.866v1.067h1.067V7.189zm-2.133 0H3.733v1.067H4.8V7.189z" style="fill:var(--color2, #4d5ae5)"/>
      <path fill="#2e2f42" d="M24.715 14.159a1.775 1.775 0 0 0-1.188-.705 1.778 1.778 0 0 0-1.34.352l-1.252.96-1.898 1.417-1.358-.541c2.421-1.086 4.114-3.508 4.114-6.32 0-3.823-3.123-6.933-6.961-6.933s-6.961 3.11-6.961 6.933a6.86 6.86 0 0 0 1.12 3.758l-2.764-.024h-.005c-.009 0-.015.004-.023.005a.515.515 0 0 0-.155.031l-.038.013c-.006.003-.013.003-.019.006l-3.233 1.596-.001.001-1.893.911a.397.397 0 0 0-.063.035 1.779 1.779 0 0 0-.598 2.295c.22.429.595.745 1.056.889a1.776 1.776 0 0 0 1.378-.128l1.388-.738 2.264-1.169 1.357-.008L2.2 22.211l-.002.001-1.339 1.333c-.316.315-.49.732-.49 1.178s.174.863.49 1.179c.325.323.752.485 1.179.485s.854-.162 1.18-.485l1.314-1.309 1.741-1.3.901.897-1.762 1.754-.002.001-1.339 1.333c-.316.315-.49.732-.49 1.178s.174.863.49 1.179c.325.323.753.485 1.18.485s.855-.162 1.18-.485l3.482-3.467.001-.002 1.01-1-.004-.004c.006-.006.015-.009.022-.015l5.166-5.658 3.471.494a.52.52 0 0 0 .262-.033c.018-.006.033-.015.05-.023.019-.01.039-.015.058-.027l3.213-2.133c.012-.008.018-.021.029-.029.013-.01.029-.014.041-.026l1.271-1.191c.662-.62.753-1.635.212-2.362zM2.13 17.77a.714.714 0 0 1-.558.052.717.717 0 0 1-.213-1.26l1.314-.632.449 1.313-.992.527zm3.498-1.828-1.548.8-.439-1.283 2.027-1.001-.04 1.484zm15.099-6.62a5.79 5.79 0 0 1-.599 2.559l-4.181-1.899a1.863 1.863 0 0 0-.788-1.388l1.464-4.86c2.378.756 4.105 2.974 4.105 5.588zm-11.789 0c0-3.235 2.644-5.867 5.894-5.867.253 0 .5.021.745.052l-1.432 4.754c-.019-.001-.037-.006-.057-.006-1.033 0-1.873.837-1.873 1.867s.84 1.867 1.873 1.867c.694 0 1.294-.383 1.618-.945l3.862 1.755a5.894 5.894 0 0 1-4.737 2.39c-3.25 0-5.894-2.632-5.894-5.867zm5.956.8c0 .441-.362.8-.806.8s-.806-.359-.806-.8c0-.441.362-.8.806-.8s.806.359.806.8zM2.465 25.146a.608.608 0 0 1-.854.001.592.592 0 0 1 0-.844l.962-.958.851.848-.959.955zm3.214 3.734a.608.608 0 0 1-.855.001.592.592 0 0 1 0-.844l.963-.959.852.848-.96.955zm3.481-3.469-.002.001-1.765 1.76-.852-.848 1.763-1.755.002-.001c.04-.04.065-.088.09-.135.007-.014.02-.026.026-.04.017-.041.019-.085.026-.129.003-.025.014-.047.014-.073 0-.036-.013-.07-.02-.106-.006-.032-.006-.065-.019-.095a.55.55 0 0 0-.091-.138c-.01-.012-.014-.027-.025-.038h-.001l-.001-.002-1.607-1.6c-.017-.017-.039-.024-.058-.038a.507.507 0 0 0-.087-.058.515.515 0 0 0-.093-.033.507.507 0 0 0-.103-.02.5.5 0 0 0-.095.005.53.53 0 0 0-.104.02.477.477 0 0 0-.094.045c-.02.011-.042.015-.061.029L4.23 23.486l-.901-.897 2.399-2.386 4.361 4.289-.928.919zm6.819-7.017c-.015-.002-.03.004-.045.003a.556.556 0 0 0-.3.075.492.492 0 0 0-.083.061c-.013.011-.028.017-.04.029l-4.698 5.146-4.328-4.257 2.833-2.818a.534.534 0 0 0-.379-.911v-.001l-2.219.013.028-1.607 3.104.027a6.947 6.947 0 0 0 4.981 2.101c.437 0 .864-.045 1.279-.123.04.032.079.065.13.085l2.41.96.152.758.178.885-3.003-.427zm4.041.178-.313-1.558 1.446-1.08.947 1.257-2.08 1.381zm3.754-2.831-.838.785-.931-1.236.831-.637a.735.735 0 0 1 .543-.143.718.718 0 0 1 .48.284.713.713 0 0 1-.085.947z" style="fill:var(--color1, #2e2f42)"/>
      <path fill="#2e2f42" d="m13.602 18.544-2.143-2.133a.534.534 0 0 0-.753 0l-2.142 2.133a.537.537 0 0 0 0 .756l2.142 2.133a.536.536 0 0 0 .753 0l2.143-2.133a.535.535 0 0 0 0-.756zm-2.519 1.759-1.387-1.381 1.387-1.381 1.387 1.381-1.387 1.381zm6.081-15.232-.258 1.036c.071.018 1.738.452 1.738 2.149h1.067c0-2.017-1.666-2.965-2.547-3.185zm2.547 4.251h-1.067v1.067h1.067V9.322z" style="fill:var(--color1, #2e2f42)"/>
    </symbol>
    <symbol id="instagram" viewBox="0 0 32 32">
      <path fill="#f4f4fd" d="M31.969 9.408c-.075-1.7-.35-2.869-.744-3.882a7.803 7.803 0 0 0-1.85-2.838A7.867 7.867 0 0 0 26.543.844C25.524.45 24.361.175 22.661.1 20.948.019 20.404 0 16.06 0s-4.888.019-6.595.094c-1.7.075-2.869.35-3.882.744a7.803 7.803 0 0 0-2.838 1.85A7.867 7.867 0 0 0 .901 5.52C.507 6.539.232 7.702.157 9.402c-.081 1.713-.1 2.257-.1 6.601s.019 4.888.094 6.595c.075 1.7.35 2.869.744 3.882a7.895 7.895 0 0 0 1.85 2.838 7.867 7.867 0 0 0 2.832 1.844c1.019.394 2.182.669 3.882.744 1.706.075 2.25.094 6.595.094s4.888-.018 6.595-.094c1.7-.075 2.869-.35 3.882-.744a8.181 8.181 0 0 0 4.682-4.682c.394-1.019.669-2.182.744-3.882.075-1.707.094-2.251.094-6.595s-.006-4.888-.081-6.595zm-2.882 13.065c-.069 1.563-.331 2.407-.55 2.969a5.307 5.307 0 0 1-3.038 3.038c-.563.219-1.413.481-2.969.55-1.688.075-2.194.094-6.464.094s-4.782-.018-6.464-.094c-1.563-.069-2.407-.331-2.969-.55a4.926 4.926 0 0 1-1.838-1.194 4.974 4.974 0 0 1-1.194-1.838c-.219-.563-.481-1.413-.55-2.969-.075-1.688-.094-2.194-.094-6.464s.019-4.782.094-6.464c.069-1.563.331-2.407.55-2.969a4.868 4.868 0 0 1 1.2-1.838A4.974 4.974 0 0 1 6.639 3.55c.563-.219 1.413-.481 2.969-.55 1.688-.075 2.194-.094 6.464-.094 4.276 0 4.782.019 6.464.094 1.563.069 2.407.331 2.969.55a4.914 4.914 0 0 1 1.838 1.194 4.974 4.974 0 0 1 1.194 1.838c.219.563.481 1.413.55 2.969.075 1.688.094 2.194.094 6.464s-.019 4.77-.094 6.457z" style="fill:var(--color3, #f4f4fd)"/>
      <path fill="#f4f4fd" d="M16.059 7.782c-4.538 0-8.22 3.682-8.22 8.22s3.682 8.22 8.22 8.22 8.22-3.682 8.22-8.22-3.682-8.22-8.22-8.22zm0 13.553a5.333 5.333 0 0 1 0-10.664 5.333 5.333 0 0 1 0 10.664zM26.524 7.457a1.919 1.919 0 1 1-3.838 0 1.919 1.919 0 0 1 3.838 0z" style="fill:var(--color3, #f4f4fd)"/>
    </symbol>
    <symbol id="twitter" viewBox="0 0 32 32">
      <path fill="#f4f4fd" d="M32 6.078c-1.19.522-2.458.868-3.78 1.036a6.523 6.523 0 0 0 2.886-3.626 13.11 13.11 0 0 1-4.16 1.588A6.574 6.574 0 0 0 22.154 3c-3.632 0-6.556 2.948-6.556 6.562 0 .52.044 1.02.152 1.496-5.454-.266-10.28-2.88-13.522-6.862a6.605 6.605 0 0 0-.898 3.316 6.57 6.57 0 0 0 2.914 5.452 6.479 6.479 0 0 1-2.964-.808v.072c0 3.188 2.274 5.836 5.256 6.446a6.548 6.548 0 0 1-1.72.216 5.8 5.8 0 0 1-1.242-.112c.85 2.598 3.262 4.508 6.13 4.57a13.182 13.182 0 0 1-8.134 2.798c-.538 0-1.054-.024-1.57-.09A18.469 18.469 0 0 0 10.064 29c12.072 0 18.672-10 18.672-18.668 0-.29-.01-.57-.024-.848A13.087 13.087 0 0 0 32 6.078z" style="fill:var(--color3, #f4f4fd)"/>
    </symbol>
    <symbol id="facebook" viewBox="0 0 32 32">
      <path fill="#f4f4fd" d="M21.329 5.313h2.921V.225C23.746.156 22.013 0 19.994 0c-4.212 0-7.097 2.649-7.097 7.519V12H8.249v5.688h4.648V32h5.699V17.689h4.46l.708-5.688h-5.169V8.082c.001-1.644.444-2.769 2.735-2.769z" style="fill:var(--color3, #f4f4fd)"/>
    </symbol>
    <symbol id="linkedin" viewBox="0 0 32 32">
      <path fill="#f4f4fd" d="M31.992 32v-.001H32V20.263c0-5.741-1.236-10.164-7.948-10.164-3.227 0-5.392 1.771-6.276 3.449h-.093v-2.913h-6.364v21.364h6.627V21.42c0-2.785.528-5.479 3.977-5.479 3.399 0 3.449 3.179 3.449 5.657v10.401h6.62zM.528 10.636h6.635V32H.528V10.636zM3.843 0C1.722 0 0 1.721 0 3.843s1.721 3.879 3.843 3.879c2.121 0 3.843-1.757 3.843-3.879A3.846 3.846 0 0 0 3.843 0z" style="fill:var(--color3, #f4f4fd)"/>
    </symbol>
    <symbol id="logo" viewBox="0 0 54 32">
      <path d="m19.613 3.613 3.617 3.446-6.714-.004v16.719h17.548v-6.392l3.613 3.442V3.614H19.612zm14.293 13.364-10.255-9.77h10.255v9.77zm-3.184 4.351H19.293V10.084h.808v10.483h10.621v.761zm-9.15 5.542-.426-.876h-.352l.617 1.159v.675h.319v-.675l.617-1.159h-.35l-.426.876zm1.57-.876h.076l.693 1.835h-.333l-.148-.43h-.71l-.148.43h-.331l.691-1.835h.212zm-.336 1.155h.537l-.269-.778-.268.778zm2.217-.304-.04-.051c-.047-.062-.084-.122-.11-.18s-.039-.119-.039-.181c0-.096.02-.178.059-.247s.095-.122.168-.159a.536.536 0 0 1 .253-.057c.093 0 .173.019.241.057s.12.086.156.147a.383.383 0 0 1 .055.202c0 .058-.01.111-.031.159s-.05.092-.087.131a.895.895 0 0 1-.129.112l-.127.093.363.429a.743.743 0 0 0 .08-.342h.262c0 .089-.009.173-.026.253a.787.787 0 0 1-.134.303l.269.317h-.352l-.107-.125a.718.718 0 0 1-.188.103.836.836 0 0 1-.601-.019.508.508 0 0 1-.207-.184.503.503 0 0 1-.072-.268c0-.075.016-.14.047-.197s.074-.11.127-.159c.05-.045.106-.09.17-.135zm.151.184-.038.028a.458.458 0 0 0-.1.105.301.301 0 0 0-.018.31.27.27 0 0 0 .102.105c.045.025.1.038.165.038a.471.471 0 0 0 .296-.105l-.408-.48zm.072-.335.113-.076c.053-.035.091-.07.113-.103s.034-.077.034-.129c0-.044-.017-.084-.05-.121s-.081-.055-.142-.055a.186.186 0 0 0-.175.108.265.265 0 0 0 .008.224.751.751 0 0 0 .1.152zm3.21.538h-.315c-.009.08-.029.147-.058.203s-.071.096-.127.125a.47.47 0 0 1-.218.043.356.356 0 0 1-.321-.169c-.034-.054-.059-.118-.076-.193s-.024-.16-.024-.252v-.155c0-.097.009-.184.026-.26s.046-.141.082-.193c.036-.052.081-.092.135-.118s.117-.04.189-.04c.088 0 .16.015.214.045s.096.072.123.129a.564.564 0 0 1 .055.203h.315c-.013-.123-.047-.231-.103-.326s-.134-.169-.234-.223a.775.775 0 0 0-.37-.081c-.115 0-.219.02-.311.061s-.17.099-.236.175c-.066.076-.116.167-.151.273s-.052.226-.052.358v.152c0 .132.017.251.05.358s.084.198.149.273c.065.075.142.133.233.174s.193.061.306.061c.148 0 .273-.027.377-.081s.184-.127.241-.221a.727.727 0 0 0 .101-.321zm1.75-.27v-.101c0-.139-.018-.262-.055-.372s-.088-.204-.155-.281c-.067-.078-.147-.137-.241-.178s-.197-.062-.31-.062c-.113 0-.215.021-.309.062s-.173.1-.241.178c-.067.077-.119.171-.156.281s-.055.233-.055.372v.101c0 .139.018.263.055.373s.091.204.159.281a.691.691 0 0 0 .55.239c.113 0 .217-.02.31-.061s.173-.1.239-.178c.067-.077.119-.171.155-.281s.054-.234.054-.373zm-.316-.103v.103c0 .102-.01.193-.03.272s-.048.146-.086.2a.368.368 0 0 1-.327.162c-.07 0-.132-.013-.186-.04s-.102-.069-.141-.122c-.039-.055-.068-.121-.088-.2s-.03-.17-.03-.272v-.103c0-.102.01-.193.03-.271s.049-.145.087-.198c.039-.054.085-.094.14-.121s.117-.042.186-.042.132.014.188.042c.055.027.102.067.14.121s.068.119.087.198c.02.078.03.168.03.271z"/>
    </symbol>
    <symbol id="logo-1" viewBox="0 0 53 32">
      <path d="M25.455 3.014h-.069a11.402 11.402 0 0 0-.32-.012h-.231a12.59 12.59 0 0 0-.658.015 14.361 14.361 0 0 0-5.341 1.363l-.22.106v11.246l.514-.174c.451-.155.932-.294 1.429-.424a17.452 17.452 0 0 1 4.112-.546v1.478a10.68 10.68 0 0 0-.541.016h-.042a16.436 16.436 0 0 0-3.164.486 16.061 16.061 0 0 0-3.769 1.469V3.613a15.099 15.099 0 0 1 3.954-1.608 15.116 15.116 0 0 1 3.726-.48h.217c.26.006.513.018.75.036.626.044 1.248.143 1.857.296v1.454a11.39 11.39 0 0 0-1.799-.271l-.037-.003a4.303 4.303 0 0 0-.368-.021zm2.559 1.487c.323.025.657.036.995.036a16.035 16.035 0 0 0 3.918-.502 16.137 16.137 0 0 0 3.767-1.47v14.167a15.154 15.154 0 0 1-3.955 1.608 15.21 15.21 0 0 1-3.726.479 11.368 11.368 0 0 1-2.827-.333V4.228c.218.05.443.097.672.136.375.063.771.11 1.156.138zm7.21.11-.514.173c-.473.159-.95.301-1.429.428-1.395.359-2.83.543-4.27.548-.335 0-.644-.009-.942-.028l-.41-.027v11.569l.352.031c.326.028.663.043 1.002.043a13.684 13.684 0 0 0 3.363-.435 14.106 14.106 0 0 0 2.628-.944l.22-.106V4.613zM18.152 22.965a.76.76 0 0 0-.571-.232.849.849 0 0 0-.33.062.742.742 0 0 0-.423.427.848.848 0 0 0-.059.319v1.927a.893.893 0 0 0 .076.395.754.754 0 0 0 .193.258.665.665 0 0 0 .265.137c.094.026.191.04.288.04a.817.817 0 0 0 .798-.81v-.216h-.504v.172a.44.44 0 0 1-.03.172.295.295 0 0 1-.073.108.322.322 0 0 1-.105.056.38.38 0 0 1-.105.018c-.045.005-.09-.002-.132-.02s-.078-.047-.104-.084a.458.458 0 0 1-.067-.258v-1.797a.611.611 0 0 1 .062-.288.256.256 0 0 1 .247-.117.262.262 0 0 1 .225.108.414.414 0 0 1 .084.258v.167h.499v-.196a.903.903 0 0 0-.23-.608zm2.993-.022a.893.893 0 0 0-.573-.212.885.885 0 0 0-.301.054.792.792 0 0 0-.461.428.887.887 0 0 0-.073.373v1.848a.907.907 0 0 0 .073.378.75.75 0 0 0 .195.258.777.777 0 0 0 .266.163.88.88 0 0 0 .602 0 .797.797 0 0 0 .535-.799v-1.848a.9.9 0 0 0-.073-.373.827.827 0 0 0-.19-.27zm-.235 2.492a.34.34 0 0 1-.1.267.367.367 0 0 1-.474 0 .34.34 0 0 1-.1-.267v-1.848a.34.34 0 0 1 .1-.267.367.367 0 0 1 .474 0 .332.332 0 0 1 .1.267v1.848zm4.165.825v-3.499h-.484l-.636 1.852h-.009l-.641-1.852h-.479v3.499h.5v-2.129h.009l.49 1.505h.249l.493-1.505h.009v2.129h.5zm2.84-3.254a.694.694 0 0 0-.283-.191 1.112 1.112 0 0 0-.362-.054h-.743v3.499h.499v-1.367h.257a.912.912 0 0 0 .45-.096.731.731 0 0 0 .274-.267.835.835 0 0 0 .114-.305c.02-.132.029-.265.027-.398a2.002 2.002 0 0 0-.049-.5.738.738 0 0 0-.184-.322zm-.257 1.067a.445.445 0 0 1-.046.182.287.287 0 0 1-.128.123.513.513 0 0 1-.235.044h-.227v-1.19h.257a.475.475 0 0 1 .225.044c.052.03.093.075.117.129a.523.523 0 0 1 .044.195v.232c0 .081.005.165 0 .24h-.005zm2.619-1.312h-.409l-.771 3.499h.499l.146-.752h.68l.146.752h.499l-.79-3.499zm-.46 2.271.245-1.268h.009l.244 1.268h-.499zm3.681-.163h-.009l-.753-2.108h-.479v3.499h.499v-2.104h.01l.762 2.104h.469v-3.499h-.499v2.108zm3.047-2.108-.401 1.391h-.01l-.401-1.391h-.528l.685 2.02v1.479h.499v-1.479l.685-2.02h-.528zm-19.783 4.487h.24v.674h.163v-.674h.239v-.138h-.642v.138zm2.02-.138-.315.812h.173l.067-.185h.324l.069.185h.177l-.323-.812h-.173zm-.026.491.111-.301.11.301h-.221zm2.023.022h.188v.105a.309.309 0 0 1-.193.068c-.033.002-.065-.004-.095-.018s-.056-.034-.077-.06a.34.34 0 0 1-.06-.212c0-.181.078-.271.234-.271.041-.004.082.007.116.03s.058.059.068.099l.161-.031c-.035-.159-.149-.239-.344-.239a.409.409 0 0 0-.284.105.39.39 0 0 0-.117.312.441.441 0 0 0 .104.305.39.39 0 0 0 .308.118.486.486 0 0 0 .344-.129v-.32h-.352v.137zm2.039-.513h-.164v.812h.569v-.138h-.405v-.674zm1.724 0h-.164v.812h.164v-.812zm1.686.542-.333-.543h-.159v.812h.153v-.531l.326.531h.163v-.812h-.15v.543zm1.524-.088h.405v-.138h-.405v-.178h.436v-.138h-.6v.812h.617v-.138h-.452v-.22zm3.695-.134h-.32v-.32h-.163v.812h.163v-.355h.32v.355h.163v-.812h-.163v.32zm1.533.134h.406v-.138h-.406v-.178h.437v-.138h-.6v.812h.615v-.138h-.452v-.22zm2.079 0c.141-.022.213-.097.213-.226a.192.192 0 0 0-.08-.18.468.468 0 0 0-.238-.048h-.344v.812h.163v-.34h.032a.223.223 0 0 1 .102.018.172.172 0 0 1 .058.059l.177.258h.195l-.099-.159a.57.57 0 0 0-.18-.195zm-.164-.112h-.121v-.204h.128a.426.426 0 0 1 .166.019.11.11 0 0 1 .027.038.102.102 0 0 1-.005.091.105.105 0 0 1-.031.035.467.467 0 0 1-.166.019zm1.732.112h.405v-.138h-.405v-.178h.437v-.138h-.601v.812h.617v-.138h-.452v-.22z"/>
    </symbol>
    <symbol id="logo-2" viewBox="0 0 57 32">
      <path d="M20.309 27.158c.009 0 .018.002.026.005s.015.008.021.013l.122.115a.989.989 0 0 1-.343.217 1.35 1.35 0 0 1-.486.078 1.303 1.303 0 0 1-.457-.073 1.002 1.002 0 0 1-.344-.206.907.907 0 0 1-.222-.318 1.063 1.063 0 0 1 .006-.816.95.95 0 0 1 .236-.318c.104-.09.228-.16.366-.207.15-.05.31-.074.471-.073.149-.003.298.019.437.066a1.2 1.2 0 0 1 .327.183l-.102.122a.092.092 0 0 1-.026.022.073.073 0 0 1-.041.009.094.094 0 0 1-.044-.013l-.055-.033-.076-.042a.9.9 0 0 0-.241-.073 1.095 1.095 0 0 0-.181-.013.986.986 0 0 0-.338.055.71.71 0 0 0-.437.399.804.804 0 0 0-.062.323.825.825 0 0 0 .062.328.694.694 0 0 0 .422.394.92.92 0 0 0 .314.052 1.45 1.45 0 0 0 .186-.01.737.737 0 0 0 .402-.168.098.098 0 0 1 .058-.021zm3.518-.576a.985.985 0 0 1-.082.405c-.05.117-.128.224-.229.314s-.224.16-.36.206a1.51 1.51 0 0 1-.926 0 1.06 1.06 0 0 1-.358-.207.918.918 0 0 1-.232-.318 1.038 1.038 0 0 1 0-.811.954.954 0 0 1 .232-.319 1.08 1.08 0 0 1 .358-.199 1.48 1.48 0 0 1 .926 0c.135.047.258.117.359.207a.934.934 0 0 1 .312.721zm-.32 0a.849.849 0 0 0-.058-.325.664.664 0 0 0-.163-.243.732.732 0 0 0-.257-.154 1.09 1.09 0 0 0-.673 0 .717.717 0 0 0-.257.154.654.654 0 0 0-.164.243.935.935 0 0 0 0 .651c.034.09.09.173.164.243a.736.736 0 0 0 .257.152c.217.069.456.069.673 0a.727.727 0 0 0 .257-.152.694.694 0 0 0 .163-.243.849.849 0 0 0 .058-.325zm2.72.341.032.073a2.526 2.526 0 0 1 .075-.145l.778-1.209c.015-.021.029-.034.044-.038a.196.196 0 0 1 .064-.006h.23v1.966h-.273v-1.507a.386.386 0 0 1 0-.068l-.783 1.226c-.01.018-.026.034-.046.045s-.043.017-.067.016h-.044c-.024 0-.047-.005-.067-.016s-.036-.026-.046-.045l-.806-1.233v1.578h-.263v-1.962h.23a.228.228 0 0 1 .064.006.085.085 0 0 1 .043.038l.795 1.21a.407.407 0 0 1 .04.07zm2.929-.097v.736h-.305v-1.963h.679a1.46 1.46 0 0 1 .379.043c.099.024.19.066.268.122.068.053.12.119.152.193.036.08.054.165.052.251a.55.55 0 0 1-.22.447.787.787 0 0 1-.27.13 1.334 1.334 0 0 1-.367.046l-.369-.005zm0-.211h.369a.85.85 0 0 0 .236-.03.517.517 0 0 0 .171-.085.382.382 0 0 0 .141-.295c.004-.055-.007-.109-.03-.16s-.06-.097-.107-.134a.658.658 0 0 0-.41-.105h-.369v.809zm4.093.95h-.241a.118.118 0 0 1-.067-.018.126.126 0 0 1-.04-.046l-.207-.475h-1.04l-.215.475a.107.107 0 0 1-.038.044.124.124 0 0 1-.069.02h-.241l.914-1.966h.317l.926 1.966zm-1.507-.73h.859l-.362-.8a1.25 1.25 0 0 1-.069-.185l-.035.103c-.011.031-.023.06-.033.083l-.359.799zm2.823-1.227a.148.148 0 0 1 .046.035l1.333 1.482v-1.526h.273v1.966h-.152a.13.13 0 0 1-.062-.012.178.178 0 0 1-.049-.036l-1.331-1.481a.771.771 0 0 1 0 .068v1.461h-.273v-1.966h.161c.019 0 .038.003.055.009zm3.896 1.175v.781h-.305v-.781l-.842-1.184h.273a.117.117 0 0 1 .066.017.17.17 0 0 1 .041.044l.527.764c.021.033.04.062.055.091s.027.056.038.083l.04-.085a.677.677 0 0 1 .052-.09l.519-.769a.225.225 0 0 1 .04-.042.108.108 0 0 1 .066-.02h.276l-.844 1.189zm-12.385-4.484c.132.014.266.026.402.036 2.055-.785 3.793-2.071 4.998-3.696s1.822-3.517 1.775-5.44l-2.265-1.935c.46 2.047.245 4.164-.622 6.113s-2.352 3.653-4.288 4.922z"/>
      <path d="m25.268 22.209.061.01c2.069-1.264 3.646-3.03 4.528-5.069s1.028-4.256.418-6.366l-3.226-2.756c1.305 2.265 1.83 4.8 1.514 7.311s-1.458 4.892-3.296 6.87zm10.939-6.737c-.548 2.113-1.879 4.018-3.795 5.434-.56.416-1.163.786-1.803 1.106 1.56-.392 2.995-1.085 4.192-2.025s2.126-2.103 2.715-3.398l-1.308-1.116z"/>
      <path d="m35.694 15.161-1.863-1.591c-.036 1.814-.639 3.587-1.748 5.135s-2.683 2.813-4.558 3.665h.009c.418 0 .835-.021 1.25-.064 1.753-.611 3.301-1.583 4.506-2.83s2.031-2.729 2.403-4.315zM25.537 6.867l-2.222-1.901c-1.986.656-3.695 1.809-4.902 3.308s-1.856 3.275-1.862 5.094c.007 2.01.799 3.961 2.251 5.544s3.479 2.706 5.762 3.194c2.038-2.121 3.231-4.743 3.406-7.483s-.677-5.457-2.433-7.755zm15.291 8.001c-.008-2.385-1.121-4.671-3.095-6.358s-4.649-2.637-7.441-2.644a12.003 12.003 0 0 0-3.772.6L40.125 18.09a7.781 7.781 0 0 0 .704-3.222z"/>
    </symbol>
    <symbol id="logo-3" viewBox="0 0 57 32">
      <path d="M13.285 11.872h-.002c-1.316 0-2.383.962-2.383 2.149v.001c0 1.187 1.067 2.149 2.383 2.149h.002c1.316 0 2.383-.962 2.383-2.149v-.001c0-1.187-1.067-2.149-2.383-2.149zm17.59-.687c-.004-1.648-.731-3.228-2.024-4.394s-3.045-1.822-4.873-1.826c-1.829.003-3.582.659-4.875 1.825s-2.021 2.746-2.025 4.395v9.089s13.795-1.385 13.797-9.088v-.001zM6.069 23.258c.003 1.147.51 2.246 1.409 3.057s2.118 1.268 3.39 1.272c1.272-.003 2.49-.46 3.39-1.271s1.406-1.91 1.41-3.056v-6.324s-9.599.965-9.599 6.323zm4.799 1.133c-.249 0-.492-.066-.698-.191s-.368-.301-.463-.509-.12-.435-.072-.655c.049-.22.168-.422.344-.58s.4-.266.644-.31c.244-.044.496-.021.726.064s.426.231.564.417a1.055 1.055 0 0 1 .118 1.065 1.133 1.133 0 0 1-.272.369c-.117.106-.256.19-.408.247s-.317.087-.482.087v-.004zm8.778-2.038v2.353h-.485v-2.353h.485zm.938 1.005v.378h-1.07v-.378h1.07zm.113-1.005v.38h-1.183v-.38h1.183zm2.214 1.122v.112c0 .179-.024.339-.073.482s-.117.264-.205.364a.89.89 0 0 1-.317.228 1.007 1.007 0 0 1-.406.079c-.148 0-.283-.026-.406-.079a.918.918 0 0 1-.317-.228 1.073 1.073 0 0 1-.209-.364 1.475 1.475 0 0 1-.073-.482v-.112c0-.18.024-.341.073-.482.049-.142.117-.264.205-.364a.91.91 0 0 1 .317-.23c.123-.053.258-.079.406-.079.149 0 .284.026.406.079a.88.88 0 0 1 .317.23c.089.1.158.221.207.364.05.141.074.302.074.482zm-.489.111v-.115c0-.125-.011-.235-.034-.33s-.056-.175-.1-.239-.098-.113-.162-.145c-.064-.033-.136-.05-.218-.05s-.155.017-.218.05a.433.433 0 0 0-.16.145c-.043.065-.076.144-.099.239s-.034.205-.034.33v.115c0 .124.011.234.034.33a.747.747 0 0 0 .1.241.436.436 0 0 0 .38.197.43.43 0 0 0 .378-.197.77.77 0 0 0 .099-.241c.023-.096.034-.206.034-.33zm2.064.505a.308.308 0 0 0-.019-.113.214.214 0 0 0-.068-.094c-.033-.029-.08-.058-.141-.086s-.138-.057-.234-.087a2.864 2.864 0 0 1-.304-.116 1.235 1.235 0 0 1-.252-.15.683.683 0 0 1-.171-.202.554.554 0 0 1-.061-.267c0-.098.022-.187.065-.267a.606.606 0 0 1 .181-.207.86.86 0 0 1 .275-.134c.107-.031.224-.047.351-.047.173 0 .325.031.454.094s.23.148.301.257a.66.66 0 0 1 .108.373h-.482a.365.365 0 0 0-.044-.181.292.292 0 0 0-.129-.124.463.463 0 0 0-.217-.045.498.498 0 0 0-.21.039.282.282 0 0 0-.126.102.25.25 0 0 0-.042.142c0 .04.01.076.029.108.02.032.051.062.091.09s.089.054.147.079c.058.025.126.049.202.073.128.039.241.082.338.131.098.049.18.103.246.163s.115.129.149.205c.033.077.05.163.05.26a.567.567 0 0 1-.233.48c-.075.056-.165.099-.27.128s-.221.044-.351.044c-.116 0-.231-.015-.344-.045a1.035 1.035 0 0 1-.309-.141c-.092-.063-.165-.142-.22-.239s-.082-.212-.082-.344h.486c0 .073.011.135.034.186s.054.092.095.123a.416.416 0 0 0 .149.068.816.816 0 0 0 .191.021.512.512 0 0 0 .207-.036.258.258 0 0 0 .121-.099.256.256 0 0 0 .04-.142zm1.867-1.738v2.353h-.483v-2.353h.483zm.724 0v.38h-1.92v-.38h1.92zm1.855 1.975v.378h-1.253v-.378h1.253zm-1.094-1.975v2.353h-.485v-2.353h.485zm.931.959v.369H27.68v-.369h1.089zm.162-.959v.38H27.68v-.38h1.251zm.284 0h.878c.18 0 .335.027.464.081.13.054.231.134.301.239s.105.235.105.39a.754.754 0 0 1-.065.325.623.623 0 0 1-.179.225.91.91 0 0 1-.27.142l-.154.081h-.763l-.003-.378h.567c.085 0 .156-.015.212-.045s.098-.072.126-.126a.388.388 0 0 0 .044-.187c0-.075-.014-.141-.042-.196s-.071-.097-.128-.126-.129-.044-.215-.044H29.7v1.974h-.485v-2.353zm1.316 2.354-.537-1.049.512-.003.543 1.03v.023h-.519zm2.546-.839h-.6v-.378h.6a.49.49 0 0 0 .226-.045c.058-.031.101-.074.128-.129s.04-.117.04-.186c0-.07-.013-.135-.04-.196s-.07-.109-.128-.145-.134-.055-.226-.055h-.432v1.974h-.485v-2.353h.917c.184 0 .342.033.474.1a.716.716 0 0 1 .409.672c0 .152-.035.283-.105.394s-.171.197-.304.257c-.131.06-.289.09-.474.09zm2.796.46v.378H34.62v-.378h1.253zm-1.094-1.975v2.353h-.485v-2.353h.485zm.931.959v.369h-1.089v-.369h1.089zm.161-.959v.38H34.62v-.38h1.251zm1.37 0v2.353h-.483v-2.353h.483zm.724 0v.38h-1.92v-.38h1.92zm1.855 1.975v.378h-1.253v-.378h1.253zm-1.094-1.975v2.353h-.485v-2.353h.485zm.931.959v.369h-1.089v-.369h1.089zm.162-.959v.38h-1.251v-.38h1.251zm.284 0h.878c.18 0 .335.027.464.081.13.054.231.134.301.239s.105.235.105.39a.754.754 0 0 1-.065.325.623.623 0 0 1-.179.225.923.923 0 0 1-.27.142l-.154.081h-.763l-.003-.378h.567c.085 0 .156-.015.212-.045s.098-.072.126-.126a.388.388 0 0 0 .044-.187c0-.075-.014-.141-.042-.196s-.071-.097-.128-.126a.473.473 0 0 0-.215-.044h-.393v1.974h-.485v-2.353zm1.316 2.354-.537-1.049.512-.003.543 1.03v.023h-.519zm2.03-.616a.33.33 0 0 0-.019-.113.214.214 0 0 0-.068-.094c-.033-.029-.08-.058-.141-.086s-.138-.057-.234-.087a2.864 2.864 0 0 1-.304-.116 1.235 1.235 0 0 1-.252-.15.683.683 0 0 1-.171-.202.554.554 0 0 1-.061-.267c0-.098.022-.187.065-.267a.606.606 0 0 1 .181-.207.86.86 0 0 1 .275-.134c.107-.031.224-.047.351-.047.173 0 .325.031.454.094s.23.148.301.257a.66.66 0 0 1 .108.373h-.482a.365.365 0 0 0-.044-.181.292.292 0 0 0-.129-.124.463.463 0 0 0-.217-.045.498.498 0 0 0-.21.039.282.282 0 0 0-.126.102.25.25 0 0 0-.042.142c0 .04.01.076.029.108.02.032.051.062.091.09s.089.054.147.079c.058.025.126.049.202.073.128.039.241.082.338.131.098.049.18.103.246.163s.115.129.149.205c.033.077.05.163.05.26a.567.567 0 0 1-.233.48c-.075.056-.165.099-.27.128s-.221.044-.351.044c-.116 0-.231-.015-.344-.045a1.035 1.035 0 0 1-.309-.141c-.092-.063-.165-.142-.22-.239s-.082-.212-.082-.344h.486c0 .073.011.135.034.186s.054.092.095.123a.416.416 0 0 0 .149.068.816.816 0 0 0 .191.021.512.512 0 0 0 .207-.036.258.258 0 0 0 .121-.099.256.256 0 0 0 .04-.142z"/>
    </symbol>
    <symbol id="logo-4" viewBox="0 0 55 32">
      <path d="M14.289 23.666a.749.749 0 0 1 .197.516c.007.122-.017.244-.07.357s-.133.214-.235.295a1.43 1.43 0 0 1-.887.238h-1.56v-3.271h1.528c.302-.018.601.059.847.217.099.074.177.168.228.274s.075.222.068.337a.706.706 0 0 1-.178.5.85.85 0 0 1-.465.256.908.908 0 0 1 .527.28zm-1.83-.494h.653a.668.668 0 0 0 .415-.109c.049-.04.087-.09.112-.145s.034-.115.029-.174c.005-.059-.005-.119-.029-.174s-.061-.105-.109-.146a.686.686 0 0 0-.428-.11h-.643v.858zm1.133 1.254a.384.384 0 0 0 .154-.332c.004-.063-.008-.126-.036-.184s-.069-.11-.122-.151a.73.73 0 0 0-.444-.118h-.685v.9h.694a.748.748 0 0 0 .438-.113zm3.821.646-.85-1.278h-.319v1.278h-.731v-3.271h1.384a1.47 1.47 0 0 1 .964.278c.194.177.31.411.329.66s-.061.494-.226.694a1.157 1.157 0 0 1-.66.332l.905 1.307h-.795zm-1.17-1.724h.598c.415 0 .623-.165.623-.495a.45.45 0 0 0-.152-.367.7.7 0 0 0-.47-.133h-.605l.007.995zm5.166 1.065h-1.457l-.257.658h-.767l1.338-3.234h.829l1.333 3.234h-.767l-.252-.658zm-.195-.495-.532-1.38-.532 1.38h1.065zm5.198 1.154h-.726l-1.627-2.224v2.224h-.724v-3.271h.724l1.627 2.237v-2.237h.726v3.271zm4.143-.783c-.15.247-.379.448-.657.577a2.324 2.324 0 0 1-1.02.206h-1.292v-3.271h1.292c.353-.008.703.061 1.02.201.278.126.507.325.657.57.149.266.227.56.227.858s-.078.592-.227.858zm-.831-.079c.207-.217.321-.494.321-.781s-.114-.563-.321-.78a1.35 1.35 0 0 0-.909-.278h-.504v2.117h.504c.332.019.658-.081.909-.278zm-7.86-20.601s9.369 3.184 9.17 7.792v7.794s-9.362-3.186-9.167-7.794l-.004-7.792zM39.381 17.37a13.75 13.75 0 0 1 5.953-1.975v-2.44c-2.462.854-4.55 2.403-5.953 4.415z"/>
      <path d="M38.318 18.105c1.448-2.625 3.959-4.651 7.016-5.661v-7.03S31.991 9.95 32.273 16.512v11.096s.595-.203 1.53-.583c0-.355 0-.713.043-1.072.276-3.046 1.885-5.869 4.472-7.848z"/>
      <path d="M37.049 22.228c.07-.77.227-1.531.467-2.272-1.611 1.709-2.587 3.829-2.79 6.063a9.54 9.54 0 0 0-.036.639c.758-.328 1.64-.737 2.566-1.218a10.396 10.396 0 0 1-.208-3.213zm.53.04a9.911 9.911 0 0 0 .165 2.91c3.645-1.964 7.742-4.998 7.584-8.665v-.32c-2.604.262-5.041 1.287-6.936 2.918a10.013 10.013 0 0 0-.813 3.157z"/>
    </symbol>
    <symbol id="logo-5" viewBox="0 0 56 32">
      <path d="M29.033 14.884a1.601 1.601 0 0 1-.329-1.08v-1.566c0-.48.109-.845.327-1.095s.592-.374 1.123-.373c.499 0 .853.106 1.062.319a1.3 1.3 0 0 1 .314.937v.368h-.892v-.373a1.863 1.863 0 0 0-.026-.365.357.357 0 0 0-.127-.217.517.517 0 0 0-.323-.084.55.55 0 0 0-.34.089.416.416 0 0 0-.148.239 1.799 1.799 0 0 0-.035.387v1.901a.974.974 0 0 0 .114.534c.044.056.106.101.178.129s.152.039.23.03a.489.489 0 0 0 .316-.086.381.381 0 0 0 .133-.231c.021-.126.03-.254.028-.381v-.386h.892v.352c.025.349-.083.695-.308.985-.205.233-.554.349-1.067.349s-.901-.124-1.121-.382zm3.713.016c-.225-.244-.338-.599-.338-1.069v-1.648c0-.465.113-.817.338-1.056s.602-.358 1.13-.357c.524 0 .899.119 1.125.357.225.239.34.591.34 1.056v1.648c0 .465-.114.822-.343 1.068s-.602.368-1.121.368-.903-.124-1.13-.366zm1.546-.395a.92.92 0 0 0 .107-.488V12a.905.905 0 0 0-.105-.478c-.045-.058-.108-.103-.182-.131s-.155-.038-.235-.028c-.08-.01-.162 0-.236.028s-.138.073-.183.131a.875.875 0 0 0-.107.478v2.027a.911.911 0 0 0 .107.488.558.558 0 0 0 .188.121.634.634 0 0 0 .458 0 .543.543 0 0 0 .188-.121v-.01zm2.122-3.687h.96l.722 3.04.739-3.04h.934l.094 4.388h-.691l-.074-3.05-.713 3.05h-.554l-.739-3.061-.068 3.061h-.698l.087-4.388zm4.526 0h1.496c.862 0 1.293.415 1.293 1.246 0 .796-.454 1.193-1.361 1.192h-.51v1.95h-.923l.006-4.388zm1.278 1.876c.091.01.184.003.272-.021s.168-.064.236-.117a.707.707 0 0 0 .133-.495 1.37 1.37 0 0 0-.044-.398c-.013-.044-.036-.085-.068-.12s-.071-.066-.117-.088a.958.958 0 0 0-.412-.07h-.358v1.311h.358zm2.842-1.876h.992l1.017 4.388h-.861l-.201-1.012h-.885l-.207 1.012h-.873l1.017-4.388zm.847 2.868-.345-1.842-.345 1.842h.691zm1.984-2.868h.646l1.237 2.503v-2.503h.766v4.388h-.615l-1.245-2.613v2.613h-.792l.002-4.388zm4.444 2.715-1.029-2.709h.866l.628 1.74.589-1.74h.848l-1.016 2.709v1.673h-.886v-1.673zm-21.876 3.592v.229h-.753v1.783h-.316v-1.783h-.757v-.229h1.826zm2.361 2.012h-.244a.106.106 0 0 1-.068-.019.113.113 0 0 1-.041-.046l-.218-.478h-1.045l-.218.478a.139.139 0 0 1-.033.054.115.115 0 0 1-.068.019h-.244l.923-2.012h.321l.934 2.004zm-1.529-.747h.872l-.369-.819a1.433 1.433 0 0 1-.068-.19l-.035.107-.033.084-.366.817zm3.121.55a.932.932 0 0 0 .322-.024c.045-.01.09-.022.133-.037.041-.014.081-.032.124-.049v-.453h-.369l-.027-.003a.063.063 0 0 1-.023-.012c-.006-.005-.011-.01-.014-.017s-.005-.013-.004-.02v-.155h.716v.771a1.404 1.404 0 0 1-.621.206c-.09.009-.18.013-.27.013a1.403 1.403 0 0 1-.465-.075 1.129 1.129 0 0 1-.369-.21.963.963 0 0 1-.238-.319 1.01 1.01 0 0 1-.085-.418.927.927 0 0 1 .321-.74c.105-.091.231-.162.369-.209.158-.051.326-.077.495-.075.086 0 .172.006.257.018.075.011.149.028.22.051a1.088 1.088 0 0 1 .346.185l-.089.124c-.007.011-.017.021-.03.028s-.027.01-.042.011a.125.125 0 0 1-.057-.016 1.176 1.176 0 0 1-.09-.048.86.86 0 0 0-.124-.054 1.214 1.214 0 0 0-.17-.045 1.53 1.53 0 0 0-.235-.018 1.092 1.092 0 0 0-.356.056.789.789 0 0 0-.271.159.693.693 0 0 0-.172.25.935.935 0 0 0 0 .671c.04.095.103.181.185.253a.794.794 0 0 0 .27.159c.117.035.242.048.366.04zm2.944-.032h1.008v.229h-1.317v-2.013h.316l-.007 1.783zm2.057.229h-.316v-2.013h.316v2.013zm1.174-2.003a.147.147 0 0 1 .048.037l1.35 1.517a.433.433 0 0 1 0-.072v-1.499h.275v2.021h-.159a.144.144 0 0 1-.068-.011.189.189 0 0 1-.05-.038l-1.348-1.515v1.565h-.264v-2.013h.164c.018 0 .035.003.052.01zm3.998-.009v.221h-1.119v.664h.907v.214h-.907v.687h1.119v.221h-1.444v-2.008h1.444zM11.496 4.696l14.021 3.435v12.038l-14.021-3.434V4.695zm-.9-1.026v13.651l15.818 3.877V7.549L10.596 3.671z"/>
      <path d="m19.074 27.534-15.82-3.88V10.005l15.82 3.878v13.651zM10.859 4.542l13.838 3.392-5.885 5.08L4.972 9.62l5.887-5.078zm-.263-.872-7.342 6.335 15.82 3.878 7.34-6.335L10.596 3.67zm9.368 23.097 6.45-5.567-6.45-1.582v7.149z"/>
    </symbol>
    <symbol id="close" viewBox="0 0 32 32">
      <path d="M32 3.223 28.777 0 16 12.777 3.223 0 0 3.223 12.777 16 0 28.777 3.223 32 16 19.223 28.777 32 32 28.777 19.223 16 32 3.223z"/>
    </symbol>
   <symbol id="person" viewBox="0 0 32 32">
      <path d="M16 16c2.947 0 5.333-2.387 5.333-5.333s-2.387-5.333-5.333-5.333c-2.947 0-5.333 2.387-5.333 5.333s2.387 5.333 5.333 5.333zM16 18.667c-3.56 0-10.667 1.787-10.667 5.333v1.333c0 0.733 0.6 1.333 1.333 1.333h18.667c0.733 0 1.333-0.6 1.333-1.333v-1.333c0-3.547-7.107-5.333-10.667-5.333z"></path>
    </symbol>
    <symbol id="phone" viewBox="0 0 24 32">
      <path d="m19.635 18.487-2.451-.28a1.92 1.92 0 0 0-1.582.55l-1.775 1.775a14.514 14.514 0 0 1-6.359-6.359l1.785-1.785c.415-.415.618-.994.55-1.582l-.28-2.432a1.931 1.931 0 0 0-1.92-1.708H5.934c-1.09 0-1.997.907-1.93 1.997.511 8.24 7.102 14.821 15.332 15.332 1.09.068 1.997-.839 1.997-1.93v-1.669a1.913 1.913 0 0 0-1.698-1.911z"/>
    </symbol>
    <symbol id="email" viewBox="0 0 24 32">
      <path d="M20 8H4c-1.1 0-1.99.9-1.99 2L2 22c0 1.1.9 2 2 2h16c1.1 0 2-.9 2-2V10c0-1.1-.9-2-2-2zm-.4 4.25-7.07 4.42c-.32.2-.74.2-1.06 0L4.4 12.25a.85.85 0 1 1 .9-1.44L12 15l6.7-4.19a.85.85 0 1 1 .9 1.44z"/>
    </symbol>
    <symbol id="check" viewBox="0 0 40 32">
      <path fill="#f4f4fd" style="fill: var(--color1, #f4f4fd)" d="M33.782 1.020c0.691-0.662 1.611-1.027 2.565-1.020s1.869 0.387 2.55 1.059c0.681 0.672 1.076 1.584 1.101 2.543s-0.321 1.891-0.966 2.598l-19.578 24.617c-0.337 0.365-0.743 0.657-1.195 0.86s-0.939 0.312-1.434 0.322c-0.495 0.009-0.986-0.082-1.445-0.268s-0.876-0.463-1.226-0.815l-12.984-13.054c-0.362-0.339-0.652-0.747-0.853-1.201s-0.309-0.944-0.318-1.441 0.082-0.99 0.267-1.451c0.185-0.461 0.461-0.879 0.81-1.231s0.766-0.628 1.224-0.814 0.949-0.277 1.443-0.269c0.494 0.009 0.981 0.118 1.433 0.32s0.858 0.494 1.195 0.857l10.275 10.325 17.042-21.83c0.031-0.038 0.063-0.074 0.098-0.109h-0.005z"></path>
    </symbol>
    <symbol id="subscribe" viewBox="0 0 38 32">
       <path fill="#fff" style="fill: var(--color1, #fff)" d="M38.4 0l-38.4 18 12.272 3.788 18.928-14.788-14.397 16.186 0.012 0.004-0.014-0.004v8.814l6.882-6.691 8.718 2.691 6-28z"></path>
    </symbol>
  </defs>
</svg>